<svg width="387" height="238" viewBox="0 0 387 238" fill="none" xmlns="http://www.w3.org/2000/svg">
<path d="M21.1875 168.317H21.0938L21.1875 168.411C20.625 169.099 20.0625 169.63 19.5 170.005C19 170.38 18.5 170.692 18 170.942C17.4375 171.192 16.9375 171.38 16.5 171.505C16.125 171.567 15.75 171.599 15.375 171.599C15 171.599 14.5625 171.567 14.0625 171.505C13.625 171.505 13.1562 171.442 12.6562 171.317C11.4688 167.567 10.4375 163.661 9.5625 159.599C8.6875 155.474 7.9375 151.692 7.3125 148.255C6.625 144.255 6.03125 140.286 5.53125 136.349C5.03125 132.536 4.625 128.724 4.3125 124.911C4.1875 123.286 4.03125 121.599 3.84375 119.849C3.71875 118.099 3.59375 116.349 3.46875 114.599C3.40625 112.786 3.34375 111.036 3.28125 109.349C3.28125 107.599 3.3125 105.974 3.375 104.474C4.625 103.599 5.875 102.942 7.125 102.505C8.4375 102.067 9.59375 101.724 10.5938 101.474C11.7188 101.224 12.8125 101.067 13.875 101.005C13.4375 101.505 13.0938 102.349 12.8438 103.536C12.6562 104.661 12.5625 106.286 12.5625 108.411C12.5625 110.536 12.6562 113.255 12.8438 116.567C13.0312 119.88 13.3438 123.911 13.7812 128.661C13.9688 130.349 14.1562 132.192 14.3438 134.192C14.5938 136.192 14.8438 138.286 15.0938 140.474C15.3438 142.599 15.5938 144.755 15.8438 146.942C16.1562 149.067 16.4375 151.099 16.6875 153.036C17.25 149.661 17.9375 145.724 18.75 141.224C19.625 136.724 20.6875 132.067 21.9375 127.255C22.8125 123.755 23.625 120.505 24.375 117.505C25.0625 114.88 25.7188 112.349 26.3438 109.911C27.0312 107.411 27.5625 105.567 27.9375 104.38C29.125 103.88 30.1562 103.536 31.0312 103.349C31.5312 103.224 31.9688 103.13 32.3438 103.067H33.6562C34.0938 103.067 34.5625 103.099 35.0625 103.161C35.5625 103.224 36.0938 103.349 36.6562 103.536C37.1562 108.849 37.6875 113.911 38.25 118.724C38.8125 123.474 39.3438 127.724 39.8438 131.474C40.4688 135.849 41.0625 139.88 41.625 143.567C41.9375 146.067 42.2812 148.349 42.6562 150.411C43.0938 152.474 43.4688 154.38 43.7812 156.13C44.0938 154.442 44.5 152.38 45 149.942C45.5625 147.442 46.0625 144.411 46.5 140.849C47.125 137.036 47.6875 133.099 48.1875 129.036C48.625 125.536 49.0312 121.661 49.4062 117.411C49.8438 113.099 50.1875 108.786 50.4375 104.474C50.9375 104.036 51.4375 103.661 51.9375 103.349C52.5 103.036 53.0312 102.755 53.5312 102.505C54.0938 102.255 54.6562 102.036 55.2188 101.849C55.7812 101.661 56.375 101.505 57 101.38C57.5 101.255 58.0625 101.161 58.6875 101.099C59.3125 101.036 59.875 101.036 60.375 101.099C60.0625 104.411 59.625 108.067 59.0625 112.067C58.5 116.005 57.9375 119.692 57.375 123.13C56.6875 127.192 56 131.224 55.3125 135.224C54.5625 139.224 53.7188 143.286 52.7812 147.411C51.9688 150.974 51.0312 154.817 49.9688 158.942C48.9688 163.005 47.875 166.849 46.6875 170.474C46.3125 170.849 45.875 171.099 45.375 171.224C44.875 171.411 44.375 171.567 43.875 171.692C43.3125 171.817 42.7812 171.88 42.2812 171.88C41.2812 171.88 40.5 171.755 39.9375 171.505C39.375 171.317 38.9375 171.005 38.625 170.567C38.375 170.192 38.1875 169.724 38.0625 169.161C37.9375 168.599 37.8125 167.974 37.6875 167.286L31.0312 119.942L21.1875 168.317ZM71.25 149.38C72 147.13 72.625 145.224 73.125 143.661C73.6875 142.099 74.1562 140.849 74.5312 139.911C74.9688 138.786 75.3438 137.88 75.6562 137.192C76.0312 136.192 76.4375 135.192 76.875 134.192C77.375 133.192 77.875 132.286 78.375 131.474C78.875 130.599 79.3438 129.88 79.7812 129.317C80.2188 128.755 80.5938 128.38 80.9062 128.192C81.1562 128.067 81.7188 128.067 82.5938 128.192C83.5312 128.317 84.5312 128.63 85.5938 129.13C86.7188 129.567 87.75 130.192 88.6875 131.005C89.6875 131.817 90.375 132.817 90.75 134.005C91.125 135.442 91.25 137.317 91.125 139.63C91 141.942 90.8125 144.317 90.5625 146.755C90.375 149.192 90.2188 151.505 90.0938 153.692C90.0312 155.88 90.1875 157.536 90.5625 158.661C90.8125 159.286 91.0625 159.911 91.3125 160.536C91.5625 161.036 91.8438 161.567 92.1562 162.13C92.5312 162.63 92.9375 163.067 93.375 163.442C91.5625 164.13 90.0938 164.63 88.9688 164.942C87.9062 165.317 87.0938 165.567 86.5312 165.692C85.8438 165.88 85.375 165.911 85.125 165.786C84.625 165.599 84.1562 165.13 83.7188 164.38C83.2812 163.63 82.9062 162.442 82.5938 160.817C82.4688 160.317 82.4375 159.442 82.5 158.192C82.5625 156.942 82.6562 155.536 82.7812 153.974C82.9062 152.411 83.0312 150.786 83.1562 149.099C83.2812 147.349 83.4062 145.724 83.5312 144.224C83.6562 142.724 83.7188 141.411 83.7188 140.286C83.7812 139.161 83.7812 138.411 83.7188 138.036C83.4062 136.974 82.9688 136.224 82.4062 135.786C81.8438 135.286 81.4062 135.224 81.0938 135.599C80.3438 136.536 79.5 138.161 78.5625 140.474C77.6875 142.724 76.8438 145.192 76.0312 147.88C75.2188 150.505 74.5 153.13 73.875 155.755C73.3125 158.38 72.9688 160.536 72.8438 162.224C72.8438 162.599 72.5312 163.005 71.9062 163.442C71.3438 163.817 70.6875 164.161 69.9375 164.474C69.25 164.786 68.5625 164.974 67.875 165.036C67.1875 165.161 66.7188 165.067 66.4688 164.755C66.2812 164.567 65.875 164.13 65.25 163.442C64.6875 162.755 64.375 161.599 64.3125 159.974C64.1875 158.411 64.1875 156.286 64.3125 153.599C64.4375 150.849 64.4688 147.974 64.4062 144.974V138.036C64.4062 135.224 64.375 131.349 64.3125 126.411C64.3125 121.411 64.2812 114.817 64.2188 106.63C64.9062 106.255 65.5312 105.942 66.0938 105.692C66.6562 105.38 67.1875 105.13 67.6875 104.942C68.25 104.692 68.7812 104.505 69.2812 104.38C71.9688 103.692 73.375 103.692 73.5 104.38C73.5625 105.005 73.5 107.005 73.3125 110.38C73.25 111.817 73.1562 113.63 73.0312 115.817C72.9062 118.005 72.75 120.661 72.5625 123.786C72.4375 126.911 72.25 130.599 72 134.849C71.8125 139.036 71.5625 143.88 71.25 149.38ZM124.969 159.317C125.094 159.755 125.281 160.161 125.531 160.536C125.719 160.849 125.969 161.161 126.281 161.474C126.656 161.724 127.094 161.88 127.594 161.942C127.156 162.817 126.719 163.411 126.281 163.724C126.031 163.911 125.812 164.036 125.625 164.099C125.062 164.286 124.219 164.38 123.094 164.38C121.969 164.38 120.875 164.036 119.812 163.349C119.438 163.036 119.094 162.567 118.781 161.942C118.469 161.442 118.188 160.755 117.938 159.88C117.75 158.942 117.594 157.755 117.469 156.317C116.594 158.192 115.594 159.692 114.469 160.817C113.406 161.88 112.344 162.661 111.281 163.161C110.094 163.849 108.875 164.255 107.625 164.38C106.062 164.505 104.562 164.255 103.125 163.63C101.75 162.942 100.562 161.942 99.5625 160.63C98.625 159.255 97.9062 157.599 97.4062 155.661C96.9062 153.724 96.75 151.536 96.9375 149.099C97.125 146.536 97.625 144.255 98.4375 142.255C99.25 140.255 100.219 138.474 101.344 136.911C102.469 135.349 103.656 134.036 104.906 132.974C106.156 131.849 107.344 130.942 108.469 130.255C109.656 129.505 110.656 128.974 111.469 128.661C112.344 128.286 112.906 128.067 113.156 128.005C113.844 127.817 114.438 127.755 114.938 127.817C115.438 127.88 115.875 128.161 116.25 128.661C116.375 128.849 116.531 129.067 116.719 129.317C116.844 129.567 117 129.911 117.188 130.349C117.375 130.724 117.531 131.161 117.656 131.661C116.156 132.349 114.75 133.13 113.438 134.005C112.125 134.817 110.906 135.817 109.781 137.005C108.719 138.192 107.781 139.63 106.969 141.317C106.156 143.005 105.531 145.067 105.094 147.505C104.469 150.567 104.625 153.036 105.562 154.911C106.562 156.786 107.906 157.567 109.594 157.255C110.594 156.942 111.562 156.349 112.5 155.474C113.312 154.724 114.156 153.599 115.031 152.099C115.969 150.599 116.844 148.536 117.656 145.911C117.969 142.161 118.219 139.224 118.406 137.099C118.656 134.911 118.875 133.255 119.062 132.13C119.312 130.817 119.5 129.942 119.625 129.505C119.812 129.192 120.188 128.911 120.75 128.661C121.312 128.349 121.938 128.099 122.625 127.911C123.312 127.724 123.938 127.63 124.5 127.63C125.062 127.567 125.438 127.567 125.625 127.63C125.75 127.692 125.812 128.474 125.812 129.974C125.812 131.411 125.75 133.255 125.625 135.505C125.562 137.692 125.469 140.099 125.344 142.724C125.219 145.286 125.094 147.724 124.969 150.036C124.906 152.349 124.844 154.38 124.781 156.13C124.781 157.817 124.844 158.88 124.969 159.317ZM168.281 122.38C167.594 122.255 166.656 122.13 165.469 122.005C164.344 121.88 163.188 121.786 162 121.724C160.625 121.661 159.156 121.63 157.594 121.63C156.031 121.505 154.062 121.505 151.688 121.63C149.375 121.692 146.938 121.724 144.375 121.724C144.312 123.349 144.188 125.005 144 126.692C143.875 128.38 143.75 130.036 143.625 131.661C143.312 134.661 143.031 137.724 142.781 140.849C142.594 143.974 142.5 146.942 142.5 149.755C142.5 152.567 142.656 155.13 142.969 157.442C143.344 159.692 144 161.474 144.938 162.786C144.188 163.349 143.375 163.786 142.5 164.099C141.625 164.349 140.844 164.536 140.156 164.661C139.344 164.849 138.531 164.942 137.719 164.942C136.969 164.942 136.344 164.692 135.844 164.192C135.344 163.692 135.062 162.817 135 161.567C134.875 159.442 134.844 157.317 134.906 155.192C135.031 153.005 135.156 150.724 135.281 148.349C135.469 145.974 135.656 143.442 135.844 140.755C136.031 138.005 136.219 135.005 136.406 131.755C136.594 128.38 136.688 125.099 136.688 121.911C134.312 121.974 132.312 122.005 130.688 122.005C129.062 122.005 128.156 121.974 127.969 121.911C127.781 121.786 127.562 121.505 127.312 121.067C127.062 120.692 126.75 120.13 126.375 119.38C125.938 118.63 125.406 117.567 124.781 116.192C125.969 116.192 127.281 116.192 128.719 116.192C130.094 116.192 131.375 116.161 132.562 116.099C133.938 116.036 135.312 115.974 136.688 115.911C136.625 114.911 136.594 113.849 136.594 112.724C136.531 111.849 136.5 110.88 136.5 109.817C136.5 108.692 136.469 107.661 136.406 106.724C136.406 106.349 136.844 105.911 137.719 105.411C138.656 104.849 139.656 104.349 140.719 103.911C141.781 103.474 142.75 103.192 143.625 103.067C144.562 102.942 145.031 103.161 145.031 103.724C145.031 104.286 145 105.661 144.938 107.849C144.938 109.974 144.875 112.567 144.75 115.63C145.375 115.63 145.844 115.599 146.156 115.536C149.469 115.411 152.125 115.286 154.125 115.161C156.188 114.974 157.875 114.942 159.188 115.067C160.5 115.192 161.656 115.505 162.656 116.005C163.656 116.505 164.781 117.317 166.031 118.442C166.469 118.817 166.844 119.224 167.156 119.661C167.469 120.036 167.719 120.474 167.906 120.974C168.156 121.411 168.281 121.88 168.281 122.38ZM167.344 146.286C168.719 146.786 170.031 147.255 171.281 147.692C172.531 148.13 173.625 148.661 174.562 149.286C175.5 149.911 176.25 150.661 176.812 151.536C177.375 152.349 177.656 153.38 177.656 154.63C177.656 156.13 177.312 157.536 176.625 158.849C176 160.161 175.062 161.317 173.812 162.317C172.562 163.317 171.031 164.099 169.219 164.661C167.469 165.286 165.5 165.599 163.312 165.599C160.875 165.599 158.906 165.349 157.406 164.849C155.906 164.411 154.75 163.88 153.938 163.255C153.125 162.63 152.594 162.005 152.344 161.38C152.094 160.755 151.969 160.255 151.969 159.88C151.969 159.13 152.125 158.317 152.438 157.442C152.75 156.505 153.344 155.505 154.219 154.442C154.594 154.005 155 153.599 155.438 153.224C156.312 152.474 157.188 152.005 158.062 151.817C157.938 153.255 158.094 154.442 158.531 155.38C159.031 156.255 159.656 156.942 160.406 157.442C161.219 157.942 162.094 158.286 163.031 158.474C164.031 158.661 164.969 158.755 165.844 158.755C166.719 158.755 167.594 158.63 168.469 158.38C169.406 158.13 170.25 157.817 171 157.442C171.75 157.005 172.344 156.536 172.781 156.036C173.281 155.474 173.531 154.88 173.531 154.255C173.531 153.567 173.25 153.005 172.688 152.567C172.125 152.13 171.406 151.786 170.531 151.536C169.719 151.224 168.812 151.005 167.812 150.88C166.875 150.692 165.969 150.505 165.094 150.317C164.219 150.13 163.031 149.88 161.531 149.567C160.094 149.192 158.656 148.63 157.219 147.88C155.844 147.13 154.625 146.13 153.562 144.88C152.562 143.63 152.062 141.974 152.062 139.911C152.062 137.536 152.656 135.474 153.844 133.724C155.094 131.911 156.594 130.411 158.344 129.224C160.156 127.974 162.062 127.036 164.062 126.411C166.062 125.786 167.844 125.474 169.406 125.474C170.219 125.474 171.094 125.599 172.031 125.849C172.969 126.036 173.844 126.411 174.656 126.974C175.469 127.474 176.125 128.161 176.625 129.036C177.188 129.911 177.469 131.036 177.469 132.411C177.469 133.786 177.344 134.911 177.094 135.786C176.906 136.599 176.594 137.255 176.156 137.755C175.781 138.192 175.312 138.474 174.75 138.599C174.188 138.724 173.531 138.786 172.781 138.786C172.281 138.786 171.812 138.724 171.375 138.599C171 138.474 170.594 138.349 170.156 138.224C169.719 138.099 169.312 137.88 168.938 137.567C169.562 136.817 170.031 136.099 170.344 135.411C170.719 134.724 170.906 133.88 170.906 132.88C170.906 132.005 170.656 131.224 170.156 130.536C169.719 129.849 168.969 129.505 167.906 129.505C166.781 129.505 165.688 129.724 164.625 130.161C163.625 130.599 162.719 131.192 161.906 131.942C161.156 132.692 160.531 133.567 160.031 134.567C159.594 135.505 159.375 136.536 159.375 137.661C159.375 139.349 160 140.942 161.25 142.442C162.562 143.942 164.594 145.224 167.344 146.286ZM233.25 168.692C232.625 169.567 231.906 170.224 231.094 170.661C230.281 171.161 229.5 171.505 228.75 171.692C227.875 171.942 226.938 172.036 225.938 171.974C225.562 171.974 225.156 171.88 224.719 171.692C224.344 171.567 223.938 171.38 223.5 171.13C223.062 170.942 222.688 170.63 222.375 170.192C221.5 167.067 220.719 164.036 220.031 161.099C219.344 158.161 218.75 155.536 218.25 153.224C217.625 150.536 217.094 148.005 216.656 145.63C214.969 145.567 212.438 145.567 209.062 145.63C205.75 145.63 202.156 145.817 198.281 146.192C197.094 149.942 196.156 153.099 195.469 155.661C194.781 158.224 194.281 160.349 193.969 162.036C193.656 163.724 193.531 165.099 193.594 166.161C193.656 167.286 193.844 168.255 194.156 169.067C193.281 169.942 192.406 170.567 191.531 170.942C190.719 171.38 189.969 171.661 189.281 171.786C188.469 171.974 187.688 172.036 186.938 171.974C185.938 171.849 185.125 171.661 184.5 171.411C183.875 171.224 183.406 170.88 183.094 170.38C182.844 169.942 182.75 169.286 182.812 168.411C182.938 167.536 183.188 166.38 183.562 164.942C183.938 163.692 184.625 161.474 185.625 158.286C186.688 155.036 187.875 151.349 189.188 147.224C186.812 147.411 184.969 147.286 183.656 146.849C182.406 146.411 181.531 145.224 181.031 143.286C182.031 142.974 183.094 142.692 184.219 142.442C185.406 142.13 186.531 141.849 187.594 141.599C188.781 141.349 190 141.13 191.25 140.942C192.562 136.817 193.906 132.755 195.281 128.755C196.656 124.755 197.938 121.161 199.125 117.974L204.562 103.442C204.688 103.067 205.344 102.661 206.531 102.224C207.719 101.786 209.031 101.442 210.469 101.192C211.906 100.88 213.281 100.724 214.594 100.724C215.906 100.724 216.75 101.005 217.125 101.567C217.312 102.88 217.562 104.505 217.875 106.442C218.25 108.38 218.594 110.255 218.906 112.067C219.281 114.192 219.719 116.38 220.219 118.63C220.781 121.755 221.375 125.224 222 129.036C222.688 132.849 223.531 136.911 224.531 141.224C225.531 145.536 226.719 150.005 228.094 154.63C229.469 159.255 231.188 163.942 233.25 168.692ZM207.188 139.349C209.188 139.286 210.844 139.255 212.156 139.255C213.469 139.255 214.594 139.286 215.531 139.349L215.25 137.942C214.875 135.63 214.469 133.161 214.031 130.536C213.656 127.911 213.25 125.317 212.812 122.755C212.438 120.192 212.062 117.755 211.688 115.442C211.312 113.13 211 111.099 210.75 109.349C210.125 110.974 209.406 112.942 208.594 115.255C207.781 117.505 206.906 119.974 205.969 122.661C205.031 125.349 204.062 128.161 203.062 131.099C202.125 134.036 201.188 136.942 200.25 139.817C201.375 139.692 202.5 139.599 203.625 139.536C204.75 139.474 205.938 139.411 207.188 139.349ZM255 126.974C256.75 126.974 258.375 127.474 259.875 128.474C261.375 129.474 262.656 130.786 263.719 132.411C264.781 134.036 265.625 135.911 266.25 138.036C266.875 140.099 267.188 142.255 267.188 144.505C267.188 146.755 266.938 149.13 266.438 151.63C265.938 154.13 265.156 156.442 264.094 158.567C263.031 160.692 261.656 162.474 259.969 163.911C258.281 165.286 256.219 165.974 253.781 165.974C251.844 165.974 250 165.286 248.25 163.911C246.562 162.474 245.25 160.692 244.312 158.567C244.188 160.755 243.906 162.974 243.469 165.224C243.031 167.536 242.812 170.286 242.812 173.474C242.812 174.411 242.844 175.474 242.906 176.661C242.969 177.849 243.062 179.036 243.188 180.224C243.312 181.411 243.5 182.505 243.75 183.505C244 184.505 244.281 185.286 244.594 185.849C243.531 186.474 242.562 186.942 241.688 187.255C240.875 187.567 240.156 187.786 239.531 187.911C238.844 188.099 238.188 188.192 237.562 188.192C236.75 188.192 236.219 187.849 235.969 187.161C235.719 186.474 235.594 185.255 235.594 183.505C235.594 182.38 235.625 180.755 235.688 178.63C235.812 176.567 235.938 174.192 236.062 171.505C236.25 168.817 236.406 166.005 236.531 163.067C236.719 160.067 236.875 157.13 237 154.255C237.188 151.38 237.312 148.724 237.375 146.286C237.5 143.786 237.562 141.692 237.562 140.005C237.562 137.942 237.531 136.349 237.469 135.224C237.406 134.036 237.312 133.161 237.188 132.599C237.125 131.974 237.031 131.536 236.906 131.286C236.781 131.036 236.625 130.755 236.438 130.442C237 130.005 237.656 129.63 238.406 129.317C239.219 128.942 240 128.692 240.75 128.567C241.562 128.38 242.281 128.317 242.906 128.38C243.594 128.442 244.125 128.599 244.5 128.849C244.812 129.161 245.031 129.63 245.156 130.255C245.344 130.88 245.5 131.817 245.625 133.067C246.812 131.442 248.156 130.036 249.656 128.849C251.219 127.599 253 126.974 255 126.974ZM251.344 160.442C252.469 160.442 253.531 159.911 254.531 158.849C255.594 157.786 256.5 156.442 257.25 154.817C258.062 153.13 258.688 151.286 259.125 149.286C259.625 147.224 259.875 145.192 259.875 143.192C259.875 141.005 259.656 139.224 259.219 137.849C258.844 136.411 258.344 135.286 257.719 134.474C257.156 133.599 256.531 133.005 255.844 132.692C255.219 132.317 254.656 132.13 254.156 132.13C252.969 132.13 251.844 132.63 250.781 133.63C249.719 134.567 248.781 135.817 247.969 137.38C247.156 138.88 246.5 140.567 246 142.442C245.562 144.317 245.344 146.192 245.344 148.067C245.344 149.817 245.5 151.442 245.812 152.942C246.188 154.442 246.656 155.755 247.219 156.88C247.781 158.005 248.406 158.88 249.094 159.505C249.844 160.13 250.594 160.442 251.344 160.442ZM290.906 126.974C292.656 126.974 294.281 127.474 295.781 128.474C297.281 129.474 298.562 130.786 299.625 132.411C300.688 134.036 301.531 135.911 302.156 138.036C302.781 140.099 303.094 142.255 303.094 144.505C303.094 146.755 302.844 149.13 302.344 151.63C301.844 154.13 301.062 156.442 300 158.567C298.938 160.692 297.562 162.474 295.875 163.911C294.188 165.286 292.125 165.974 289.688 165.974C287.75 165.974 285.906 165.286 284.156 163.911C282.469 162.474 281.156 160.692 280.219 158.567C280.094 160.755 279.812 162.974 279.375 165.224C278.938 167.536 278.719 170.286 278.719 173.474C278.719 174.411 278.75 175.474 278.812 176.661C278.875 177.849 278.969 179.036 279.094 180.224C279.219 181.411 279.406 182.505 279.656 183.505C279.906 184.505 280.188 185.286 280.5 185.849C279.438 186.474 278.469 186.942 277.594 187.255C276.781 187.567 276.062 187.786 275.438 187.911C274.75 188.099 274.094 188.192 273.469 188.192C272.656 188.192 272.125 187.849 271.875 187.161C271.625 186.474 271.5 185.255 271.5 183.505C271.5 182.38 271.531 180.755 271.594 178.63C271.719 176.567 271.844 174.192 271.969 171.505C272.156 168.817 272.312 166.005 272.438 163.067C272.625 160.067 272.781 157.13 272.906 154.255C273.094 151.38 273.219 148.724 273.281 146.286C273.406 143.786 273.469 141.692 273.469 140.005C273.469 137.942 273.438 136.349 273.375 135.224C273.312 134.036 273.219 133.161 273.094 132.599C273.031 131.974 272.938 131.536 272.812 131.286C272.688 131.036 272.531 130.755 272.344 130.442C272.906 130.005 273.562 129.63 274.312 129.317C275.125 128.942 275.906 128.692 276.656 128.567C277.469 128.38 278.188 128.317 278.812 128.38C279.5 128.442 280.031 128.599 280.406 128.849C280.719 129.161 280.938 129.63 281.062 130.255C281.25 130.88 281.406 131.817 281.531 133.067C282.719 131.442 284.062 130.036 285.562 128.849C287.125 127.599 288.906 126.974 290.906 126.974ZM287.25 160.442C288.375 160.442 289.438 159.911 290.438 158.849C291.5 157.786 292.406 156.442 293.156 154.817C293.969 153.13 294.594 151.286 295.031 149.286C295.531 147.224 295.781 145.192 295.781 143.192C295.781 141.005 295.562 139.224 295.125 137.849C294.75 136.411 294.25 135.286 293.625 134.474C293.062 133.599 292.438 133.005 291.75 132.692C291.125 132.317 290.562 132.13 290.062 132.13C288.875 132.13 287.75 132.63 286.688 133.63C285.625 134.567 284.688 135.817 283.875 137.38C283.062 138.88 282.406 140.567 281.906 142.442C281.469 144.317 281.25 146.192 281.25 148.067C281.25 149.817 281.406 151.442 281.719 152.942C282.094 154.442 282.562 155.755 283.125 156.88C283.688 158.005 284.312 158.88 285 159.505C285.75 160.13 286.5 160.442 287.25 160.442Z" fill="#040404"/>
<g filter="url(#filter0_d_244_13)">
<circle cx="48" cy="61.0987" r="5" fill="#1EB206"/>
</g>
<path d="M59.7813 56.4182C355.039 14.5028 360.177 181.387 360.177 181.387" stroke="url(#paint0_linear_244_13)" stroke-width="7" stroke-linecap="round"/>
<g filter="url(#filter1_d_244_13)">
<line x1="372.042" y1="140.662" x2="286.558" y2="192.61" stroke="url(#paint1_linear_244_13)" stroke-width="6"/>
</g>
<defs>
<filter id="filter0_d_244_13" x="39" y="56.0987" width="18" height="18" filterUnits="userSpaceOnUse" color-interpolation-filters="sRGB">
<feFlood flood-opacity="0" result="BackgroundImageFix"/>
<feColorMatrix in="SourceAlpha" type="matrix" values="0 0 0 0 0 0 0 0 0 0 0 0 0 0 0 0 0 0 127 0" result="hardAlpha"/>
<feOffset dy="4"/>
<feGaussianBlur stdDeviation="2"/>
<feComposite in2="hardAlpha" operator="out"/>
<feColorMatrix type="matrix" values="0 0 0 0 0 0 0 0 0 0 0 0 0 0 0 0 0 0 0.25 0"/>
<feBlend mode="normal" in2="BackgroundImageFix" result="effect1_dropShadow_244_13"/>
<feBlend mode="normal" in="SourceGraphic" in2="effect1_dropShadow_244_13" result="shape"/>
</filter>
<filter id="filter1_d_244_13" x="281" y="138.099" width="96.5996" height="65.0753" filterUnits="userSpaceOnUse" color-interpolation-filters="sRGB">
<feFlood flood-opacity="0" result="BackgroundImageFix"/>
<feColorMatrix in="SourceAlpha" type="matrix" values="0 0 0 0 0 0 0 0 0 0 0 0 0 0 0 0 0 0 127 0" result="hardAlpha"/>
<feOffset dy="4"/>
<feGaussianBlur stdDeviation="2"/>
<feComposite in2="hardAlpha" operator="out"/>
<feColorMatrix type="matrix" values="0 0 0 0 0 0 0 0 0 0 0 0 0 0 0 0 0 0 0.25 0"/>
<feBlend mode="normal" in2="BackgroundImageFix" result="effect1_dropShadow_244_13"/>
<feBlend mode="normal" in="SourceGraphic" in2="effect1_dropShadow_244_13" result="shape"/>
</filter>
<linearGradient id="paint0_linear_244_13" x1="266.5" y1="67.0987" x2="76" y2="57.5987" gradientUnits="userSpaceOnUse">
<stop stop-color="#11AE03"/>
<stop offset="1" stop-color="#29FF16" stop-opacity="0"/>
</linearGradient>
<linearGradient id="paint1_linear_244_13" x1="373.002" y1="137.056" x2="295.048" y2="193.388" gradientUnits="userSpaceOnUse">
<stop stop-color="#04DE00"/>
<stop offset="0.0001" stop-color="#04DA00"/>
<stop offset="0.9999" stop-color="#0A7908"/>
<stop offset="1" stop-color="#0A7908"/>
</linearGradient>
</defs>
</svg>
