<svg width="474" height="232" viewBox="0 0 474 232" fill="none" xmlns="http://www.w3.org/2000/svg">
<path d="M26.7051 187.318H26.5869L26.7051 187.436C25.9961 188.302 25.2871 188.972 24.5781 189.445C23.9479 189.917 23.3177 190.311 22.6875 190.626C21.9785 190.941 21.3483 191.178 20.7969 191.335C20.3242 191.414 19.8516 191.453 19.3789 191.453C18.9062 191.453 18.3548 191.414 17.7246 191.335C17.1732 191.335 16.5824 191.256 15.9521 191.099C14.4554 186.372 13.1556 181.449 12.0527 176.328C10.9499 171.129 10.0046 166.363 9.2168 162.031C8.35026 156.989 7.60189 151.987 6.97168 147.024C6.34147 142.218 5.82943 137.413 5.43555 132.608C5.27799 130.559 5.08105 128.433 4.84473 126.227C4.68717 124.021 4.52962 121.815 4.37207 119.61C4.29329 117.325 4.21452 115.119 4.13574 112.992C4.13574 110.787 4.17513 108.739 4.25391 106.848C5.82943 105.745 7.40495 104.918 8.98047 104.366C10.6348 103.815 12.0921 103.382 13.3525 103.067C14.7705 102.752 16.1491 102.555 17.4883 102.476C16.9368 103.106 16.5036 104.17 16.1885 105.666C15.9521 107.084 15.834 109.132 15.834 111.811C15.834 114.489 15.9521 117.916 16.1885 122.091C16.4248 126.266 16.8187 131.347 17.3701 137.334C17.6064 139.461 17.8428 141.785 18.0791 144.306C18.3942 146.827 18.7093 149.466 19.0244 152.223C19.3395 154.901 19.6546 157.619 19.9697 160.376C20.3636 163.055 20.7181 165.615 21.0332 168.057C21.7422 163.803 22.6087 158.84 23.6328 153.168C24.7357 147.496 26.0749 141.628 27.6504 135.562C28.7533 131.15 29.7773 127.054 30.7227 123.273C31.5892 119.964 32.4163 116.774 33.2041 113.701C34.0706 110.55 34.7402 108.226 35.2129 106.73C36.7096 106.1 38.0094 105.666 39.1123 105.43C39.7425 105.272 40.2939 105.154 40.7666 105.075H42.4209C42.9723 105.075 43.5632 105.115 44.1934 105.194C44.8236 105.272 45.4932 105.43 46.2021 105.666C46.8324 112.362 47.502 118.743 48.2109 124.809C48.9199 130.796 49.5895 136.153 50.2197 140.879C51.0075 146.393 51.7559 151.475 52.4648 156.122C52.8587 159.273 53.292 162.149 53.7646 164.748C54.3161 167.348 54.7887 169.751 55.1826 171.956C55.5765 169.829 56.0885 167.23 56.7188 164.157C57.4277 161.006 58.0579 157.186 58.6094 152.696C59.3971 147.89 60.1061 142.927 60.7363 137.807C61.2878 133.395 61.7998 128.511 62.2725 123.155C62.8239 117.719 63.2572 112.283 63.5723 106.848C64.2025 106.296 64.8327 105.824 65.4629 105.43C66.1719 105.036 66.8415 104.682 67.4717 104.366C68.1807 104.051 68.8896 103.776 69.5986 103.539C70.3076 103.303 71.056 103.106 71.8438 102.948C72.474 102.791 73.1829 102.673 73.9707 102.594C74.7585 102.515 75.4674 102.515 76.0977 102.594C75.7038 106.769 75.1523 111.378 74.4434 116.419C73.7344 121.382 73.0254 126.03 72.3164 130.363C71.4499 135.483 70.5833 140.564 69.7168 145.606C68.7715 150.647 67.708 155.768 66.5264 160.967C65.5023 165.457 64.3206 170.302 62.9814 175.501C61.721 180.622 60.3424 185.466 58.8457 190.035C58.373 190.508 57.8216 190.823 57.1914 190.981C56.5612 191.217 55.931 191.414 55.3008 191.572C54.5918 191.729 53.9222 191.808 53.292 191.808C52.0316 191.808 51.0469 191.65 50.3379 191.335C49.6289 191.099 49.0775 190.705 48.6836 190.154C48.3685 189.681 48.1322 189.09 47.9746 188.381C47.8171 187.672 47.6595 186.884 47.502 186.018L39.1123 126.345L26.7051 187.318ZM89.8047 163.448C90.75 160.613 91.5378 158.21 92.168 156.24C92.877 154.271 93.4678 152.696 93.9404 151.514C94.4919 150.096 94.9645 148.954 95.3584 148.087C95.8311 146.827 96.3431 145.566 96.8945 144.306C97.5247 143.045 98.1549 141.903 98.7852 140.879C99.4154 139.776 100.006 138.87 100.558 138.161C101.109 137.452 101.582 136.98 101.976 136.743C102.291 136.586 103 136.586 104.103 136.743C105.284 136.901 106.545 137.295 107.884 137.925C109.302 138.476 110.602 139.264 111.783 140.288C113.044 141.312 113.91 142.573 114.383 144.07C114.855 145.881 115.013 148.245 114.855 151.159C114.698 154.074 114.462 157.068 114.146 160.14C113.91 163.212 113.713 166.127 113.556 168.884C113.477 171.641 113.674 173.729 114.146 175.147C114.462 175.934 114.777 176.722 115.092 177.51C115.407 178.14 115.761 178.81 116.155 179.519C116.628 180.149 117.14 180.7 117.691 181.173C115.407 182.04 113.556 182.67 112.138 183.064C110.799 183.536 109.774 183.851 109.065 184.009C108.199 184.245 107.608 184.285 107.293 184.127C106.663 183.891 106.072 183.3 105.521 182.355C104.969 181.409 104.496 179.913 104.103 177.865C103.945 177.234 103.906 176.131 103.984 174.556C104.063 172.98 104.181 171.208 104.339 169.239C104.496 167.269 104.654 165.221 104.812 163.094C104.969 160.888 105.127 158.84 105.284 156.949C105.442 155.059 105.521 153.405 105.521 151.987C105.599 150.569 105.599 149.623 105.521 149.151C105.127 147.811 104.575 146.866 103.866 146.315C103.157 145.684 102.606 145.606 102.212 146.078C101.267 147.26 100.203 149.308 99.0215 152.223C97.9186 155.059 96.8551 158.17 95.8311 161.558C94.807 164.866 93.901 168.175 93.1133 171.484C92.4043 174.792 91.971 177.51 91.8135 179.637C91.8135 180.11 91.4196 180.622 90.6318 181.173C89.9229 181.646 89.0957 182.079 88.1504 182.473C87.2839 182.867 86.4173 183.103 85.5508 183.182C84.6842 183.339 84.0934 183.221 83.7783 182.827C83.542 182.591 83.0299 182.04 82.2422 181.173C81.5332 180.307 81.1393 178.849 81.0605 176.801C80.903 174.832 80.903 172.153 81.0605 168.766C81.2181 165.3 81.2575 161.676 81.1787 157.895V149.151C81.1787 145.606 81.1393 140.722 81.0605 134.498C81.0605 128.196 81.0212 119.885 80.9424 109.566C81.8089 109.093 82.5967 108.699 83.3057 108.384C84.0146 107.99 84.6842 107.675 85.3145 107.439C86.0234 107.124 86.693 106.887 87.3232 106.73C90.7106 105.863 92.4831 105.863 92.6406 106.73C92.7194 107.517 92.6406 110.038 92.4043 114.292C92.3255 116.104 92.2074 118.389 92.0498 121.146C91.8923 123.903 91.6953 127.251 91.459 131.19C91.3014 135.128 91.0651 139.776 90.75 145.133C90.5137 150.411 90.1986 156.516 89.8047 163.448ZM157.513 175.974C157.67 176.525 157.907 177.037 158.222 177.51C158.458 177.904 158.773 178.298 159.167 178.692C159.64 179.007 160.191 179.204 160.821 179.282C160.27 180.385 159.718 181.134 159.167 181.528C158.852 181.764 158.576 181.921 158.34 182C157.631 182.237 156.567 182.355 155.149 182.355C153.731 182.355 152.353 181.921 151.014 181.055C150.541 180.661 150.108 180.07 149.714 179.282C149.32 178.652 148.965 177.786 148.65 176.683C148.414 175.501 148.217 174.004 148.06 172.193C146.957 174.556 145.696 176.447 144.278 177.865C142.939 179.204 141.6 180.188 140.261 180.819C138.764 181.685 137.228 182.197 135.652 182.355C133.683 182.512 131.792 182.197 129.98 181.409C128.247 180.543 126.751 179.282 125.49 177.628C124.309 175.895 123.403 173.808 122.772 171.365C122.142 168.923 121.945 166.166 122.182 163.094C122.418 159.864 123.048 156.989 124.072 154.468C125.096 151.947 126.317 149.702 127.735 147.733C129.153 145.763 130.65 144.109 132.226 142.77C133.801 141.352 135.298 140.21 136.716 139.343C138.213 138.398 139.473 137.728 140.497 137.334C141.6 136.862 142.309 136.586 142.624 136.507C143.491 136.271 144.239 136.192 144.869 136.271C145.499 136.35 146.051 136.704 146.523 137.334C146.681 137.571 146.878 137.846 147.114 138.161C147.272 138.476 147.469 138.91 147.705 139.461C147.941 139.934 148.138 140.485 148.296 141.115C146.405 141.982 144.633 142.967 142.979 144.07C141.324 145.094 139.788 146.354 138.37 147.851C137.031 149.348 135.849 151.159 134.825 153.286C133.801 155.413 133.013 158.013 132.462 161.085C131.674 164.945 131.871 168.057 133.053 170.42C134.313 172.783 136.007 173.768 138.134 173.374C139.394 172.98 140.615 172.232 141.797 171.129C142.821 170.184 143.884 168.766 144.987 166.875C146.169 164.985 147.272 162.385 148.296 159.076C148.69 154.35 149.005 150.647 149.241 147.969C149.556 145.212 149.832 143.124 150.068 141.706C150.383 140.052 150.62 138.949 150.777 138.398C151.014 138.004 151.486 137.649 152.195 137.334C152.904 136.94 153.692 136.625 154.559 136.389C155.425 136.153 156.213 136.034 156.922 136.034C157.631 135.956 158.104 135.956 158.34 136.034C158.497 136.113 158.576 137.098 158.576 138.989C158.576 140.8 158.497 143.124 158.34 145.96C158.261 148.717 158.143 151.75 157.985 155.059C157.828 158.289 157.67 161.361 157.513 164.276C157.434 167.19 157.355 169.751 157.276 171.956C157.276 174.083 157.355 175.422 157.513 175.974ZM212.104 129.417C211.238 129.26 210.056 129.102 208.56 128.945C207.142 128.787 205.684 128.669 204.188 128.59C202.454 128.511 200.603 128.472 198.634 128.472C196.664 128.314 194.183 128.314 191.189 128.472C188.275 128.551 185.202 128.59 181.973 128.59C181.894 130.638 181.736 132.726 181.5 134.853C181.342 136.98 181.185 139.067 181.027 141.115C180.633 144.897 180.279 148.757 179.964 152.696C179.728 156.634 179.609 160.376 179.609 163.921C179.609 167.466 179.806 170.696 180.2 173.611C180.673 176.447 181.5 178.692 182.682 180.346C181.736 181.055 180.712 181.606 179.609 182C178.507 182.315 177.522 182.552 176.655 182.709C175.631 182.946 174.607 183.064 173.583 183.064C172.638 183.064 171.85 182.749 171.22 182.118C170.59 181.488 170.235 180.385 170.156 178.81C169.999 176.131 169.959 173.453 170.038 170.775C170.196 168.017 170.353 165.142 170.511 162.149C170.747 159.155 170.983 155.965 171.22 152.577C171.456 149.111 171.692 145.33 171.929 141.234C172.165 136.98 172.283 132.844 172.283 128.826C169.29 128.905 166.769 128.945 164.721 128.945C162.673 128.945 161.53 128.905 161.294 128.826C161.058 128.669 160.782 128.314 160.467 127.763C160.152 127.29 159.758 126.581 159.285 125.636C158.734 124.691 158.064 123.351 157.276 121.618C158.773 121.618 160.427 121.618 162.239 121.618C163.972 121.618 165.587 121.579 167.084 121.5C168.817 121.421 170.55 121.343 172.283 121.264C172.204 120.003 172.165 118.664 172.165 117.246C172.086 116.143 172.047 114.922 172.047 113.583C172.047 112.165 172.007 110.865 171.929 109.684C171.929 109.211 172.48 108.66 173.583 108.03C174.765 107.321 176.025 106.69 177.364 106.139C178.703 105.587 179.924 105.233 181.027 105.075C182.209 104.918 182.8 105.194 182.8 105.903C182.8 106.612 182.76 108.345 182.682 111.102C182.682 113.78 182.603 117.049 182.445 120.909C183.233 120.909 183.824 120.87 184.218 120.791C188.393 120.634 191.741 120.476 194.262 120.319C196.861 120.082 198.988 120.043 200.643 120.2C202.297 120.358 203.754 120.752 205.015 121.382C206.275 122.012 207.693 123.036 209.269 124.454C209.82 124.927 210.293 125.439 210.687 125.99C211.08 126.463 211.396 127.015 211.632 127.645C211.947 128.196 212.104 128.787 212.104 129.417ZM210.923 159.549C212.656 160.179 214.31 160.77 215.886 161.322C217.461 161.873 218.84 162.543 220.021 163.33C221.203 164.118 222.148 165.063 222.857 166.166C223.566 167.19 223.921 168.49 223.921 170.066C223.921 171.956 223.488 173.729 222.621 175.383C221.833 177.037 220.652 178.495 219.076 179.755C217.501 181.016 215.571 182 213.286 182.709C211.08 183.497 208.599 183.891 205.842 183.891C202.77 183.891 200.288 183.576 198.397 182.946C196.507 182.394 195.049 181.725 194.025 180.937C193.001 180.149 192.332 179.361 192.017 178.573C191.701 177.786 191.544 177.156 191.544 176.683C191.544 175.738 191.741 174.713 192.135 173.611C192.529 172.429 193.277 171.169 194.38 169.829C194.853 169.278 195.365 168.766 195.916 168.293C197.019 167.348 198.122 166.757 199.225 166.521C199.067 168.333 199.264 169.829 199.815 171.011C200.446 172.114 201.233 172.98 202.179 173.611C203.203 174.241 204.306 174.674 205.487 174.91C206.748 175.147 207.929 175.265 209.032 175.265C210.135 175.265 211.238 175.107 212.341 174.792C213.522 174.477 214.586 174.083 215.531 173.611C216.477 173.059 217.225 172.468 217.776 171.838C218.407 171.129 218.722 170.381 218.722 169.593C218.722 168.726 218.367 168.017 217.658 167.466C216.949 166.915 216.043 166.481 214.94 166.166C213.916 165.772 212.774 165.497 211.514 165.339C210.332 165.103 209.19 164.866 208.087 164.63C206.984 164.394 205.487 164.079 203.597 163.685C201.785 163.212 199.973 162.503 198.161 161.558C196.428 160.613 194.892 159.352 193.553 157.777C192.292 156.201 191.662 154.114 191.662 151.514C191.662 148.52 192.41 145.921 193.907 143.715C195.483 141.431 197.373 139.54 199.579 138.043C201.864 136.468 204.266 135.286 206.787 134.498C209.308 133.711 211.553 133.317 213.522 133.317C214.547 133.317 215.649 133.474 216.831 133.789C218.013 134.026 219.116 134.498 220.14 135.207C221.164 135.837 221.991 136.704 222.621 137.807C223.33 138.91 223.685 140.328 223.685 142.061C223.685 143.794 223.527 145.212 223.212 146.315C222.976 147.339 222.582 148.166 222.03 148.796C221.558 149.348 220.967 149.702 220.258 149.86C219.549 150.017 218.722 150.096 217.776 150.096C217.146 150.096 216.555 150.017 216.004 149.86C215.531 149.702 215.019 149.545 214.468 149.387C213.916 149.229 213.404 148.954 212.932 148.56C213.719 147.615 214.31 146.709 214.704 145.842C215.177 144.976 215.413 143.912 215.413 142.652C215.413 141.549 215.098 140.564 214.468 139.698C213.916 138.831 212.971 138.398 211.632 138.398C210.214 138.398 208.835 138.673 207.496 139.225C206.236 139.776 205.093 140.525 204.069 141.47C203.124 142.415 202.336 143.518 201.706 144.779C201.155 145.96 200.879 147.26 200.879 148.678C200.879 150.805 201.667 152.814 203.242 154.704C204.896 156.595 207.457 158.21 210.923 159.549ZM293.992 187.79C293.204 188.893 292.299 189.72 291.274 190.272C290.25 190.902 289.266 191.335 288.32 191.572C287.217 191.887 286.036 192.005 284.775 191.926C284.303 191.926 283.791 191.808 283.239 191.572C282.767 191.414 282.255 191.178 281.703 190.863C281.152 190.626 280.679 190.232 280.285 189.681C279.182 185.742 278.198 181.921 277.331 178.219C276.465 174.517 275.716 171.208 275.086 168.293C274.298 164.906 273.629 161.715 273.077 158.722C270.95 158.643 267.76 158.643 263.506 158.722C259.331 158.722 254.801 158.958 249.917 159.431C248.42 164.157 247.239 168.136 246.372 171.365C245.506 174.595 244.875 177.274 244.481 179.401C244.088 181.528 243.93 183.261 244.009 184.6C244.088 186.018 244.324 187.239 244.718 188.263C243.615 189.366 242.512 190.154 241.409 190.626C240.385 191.178 239.44 191.532 238.573 191.69C237.549 191.926 236.564 192.005 235.619 191.926C234.359 191.768 233.335 191.532 232.547 191.217C231.759 190.981 231.168 190.547 230.774 189.917C230.459 189.366 230.341 188.539 230.42 187.436C230.577 186.333 230.893 184.876 231.365 183.064C231.838 181.488 232.704 178.692 233.965 174.674C235.304 170.578 236.801 165.93 238.455 160.731C235.462 160.967 233.138 160.809 231.483 160.258C229.908 159.707 228.805 158.21 228.175 155.768C229.435 155.374 230.774 155.019 232.192 154.704C233.689 154.31 235.107 153.956 236.446 153.641C237.943 153.326 239.479 153.05 241.055 152.814C242.709 147.615 244.403 142.494 246.136 137.452C247.869 132.411 249.484 127.881 250.98 123.864L257.834 105.548C257.992 105.075 258.819 104.563 260.315 104.012C261.812 103.461 263.466 103.027 265.278 102.712C267.09 102.318 268.823 102.121 270.478 102.121C272.132 102.121 273.195 102.476 273.668 103.185C273.904 104.839 274.219 106.887 274.613 109.329C275.086 111.771 275.519 114.135 275.913 116.419C276.386 119.098 276.937 121.855 277.567 124.691C278.276 128.629 279.025 133.002 279.812 137.807C280.679 142.612 281.743 147.733 283.003 153.168C284.263 158.604 285.76 164.236 287.493 170.066C289.226 175.895 291.393 181.803 293.992 187.79ZM261.143 150.805C263.663 150.726 265.751 150.687 267.405 150.687C269.06 150.687 270.478 150.726 271.659 150.805L271.305 149.032C270.832 146.118 270.32 143.006 269.769 139.698C269.296 136.389 268.784 133.12 268.232 129.89C267.76 126.66 267.287 123.588 266.814 120.673C266.342 117.758 265.948 115.198 265.633 112.992C264.845 115.041 263.939 117.522 262.915 120.437C261.891 123.273 260.788 126.384 259.606 129.772C258.425 133.159 257.204 136.704 255.943 140.406C254.762 144.109 253.58 147.772 252.398 151.396C253.816 151.238 255.234 151.12 256.652 151.041C258.07 150.962 259.567 150.884 261.143 150.805ZM321.406 135.207C323.612 135.207 325.66 135.837 327.551 137.098C329.441 138.358 331.056 140.013 332.396 142.061C333.735 144.109 334.798 146.472 335.586 149.151C336.374 151.75 336.768 154.468 336.768 157.304C336.768 160.14 336.452 163.133 335.822 166.284C335.192 169.435 334.207 172.35 332.868 175.029C331.529 177.707 329.796 179.952 327.669 181.764C325.542 183.497 322.942 184.364 319.87 184.364C317.428 184.364 315.104 183.497 312.898 181.764C310.771 179.952 309.117 177.707 307.936 175.029C307.778 177.786 307.424 180.582 306.872 183.418C306.321 186.333 306.045 189.799 306.045 193.817C306.045 194.998 306.084 196.337 306.163 197.834C306.242 199.331 306.36 200.828 306.518 202.324C306.675 203.821 306.911 205.2 307.227 206.46C307.542 207.721 307.896 208.705 308.29 209.414C306.951 210.202 305.73 210.793 304.627 211.187C303.603 211.581 302.697 211.856 301.909 212.014C301.043 212.25 300.215 212.368 299.428 212.368C298.404 212.368 297.734 211.935 297.419 211.069C297.104 210.202 296.946 208.666 296.946 206.46C296.946 205.042 296.986 202.994 297.064 200.316C297.222 197.716 297.38 194.723 297.537 191.335C297.773 187.948 297.97 184.403 298.128 180.7C298.364 176.919 298.561 173.217 298.719 169.593C298.955 165.969 299.113 162.621 299.191 159.549C299.349 156.398 299.428 153.759 299.428 151.632C299.428 149.032 299.388 147.024 299.31 145.606C299.231 144.109 299.113 143.006 298.955 142.297C298.876 141.509 298.758 140.958 298.601 140.643C298.443 140.328 298.246 139.973 298.01 139.579C298.719 139.028 299.546 138.555 300.491 138.161C301.515 137.689 302.5 137.374 303.445 137.216C304.469 136.98 305.375 136.901 306.163 136.98C307.03 137.059 307.699 137.255 308.172 137.571C308.566 137.964 308.841 138.555 308.999 139.343C309.235 140.131 309.432 141.312 309.59 142.888C311.087 140.84 312.78 139.067 314.671 137.571C316.64 135.995 318.885 135.207 321.406 135.207ZM316.798 177.392C318.216 177.392 319.555 176.722 320.815 175.383C322.155 174.044 323.297 172.35 324.242 170.302C325.266 168.175 326.054 165.851 326.605 163.33C327.236 160.731 327.551 158.17 327.551 155.65C327.551 152.892 327.275 150.647 326.724 148.914C326.251 147.102 325.621 145.684 324.833 144.66C324.124 143.558 323.336 142.809 322.47 142.415C321.682 141.943 320.973 141.706 320.343 141.706C318.846 141.706 317.428 142.337 316.089 143.597C314.75 144.779 313.568 146.354 312.544 148.323C311.52 150.214 310.693 152.341 310.062 154.704C309.511 157.068 309.235 159.431 309.235 161.794C309.235 164 309.432 166.048 309.826 167.939C310.299 169.829 310.89 171.484 311.599 172.902C312.308 174.32 313.095 175.422 313.962 176.21C314.907 176.998 315.853 177.392 316.798 177.392ZM366.663 135.207C368.869 135.207 370.917 135.837 372.808 137.098C374.698 138.358 376.313 140.013 377.652 142.061C378.992 144.109 380.055 146.472 380.843 149.151C381.631 151.75 382.024 154.468 382.024 157.304C382.024 160.14 381.709 163.133 381.079 166.284C380.449 169.435 379.464 172.35 378.125 175.029C376.786 177.707 375.053 179.952 372.926 181.764C370.799 183.497 368.199 184.364 365.127 184.364C362.685 184.364 360.361 183.497 358.155 181.764C356.028 179.952 354.374 177.707 353.192 175.029C353.035 177.786 352.68 180.582 352.129 183.418C351.577 186.333 351.302 189.799 351.302 193.817C351.302 194.998 351.341 196.337 351.42 197.834C351.499 199.331 351.617 200.828 351.774 202.324C351.932 203.821 352.168 205.2 352.483 206.46C352.799 207.721 353.153 208.705 353.547 209.414C352.208 210.202 350.987 210.793 349.884 211.187C348.86 211.581 347.954 211.856 347.166 212.014C346.299 212.25 345.472 212.368 344.685 212.368C343.66 212.368 342.991 211.935 342.676 211.069C342.361 210.202 342.203 208.666 342.203 206.46C342.203 205.042 342.243 202.994 342.321 200.316C342.479 197.716 342.636 194.723 342.794 191.335C343.03 187.948 343.227 184.403 343.385 180.7C343.621 176.919 343.818 173.217 343.976 169.593C344.212 165.969 344.369 162.621 344.448 159.549C344.606 156.398 344.685 153.759 344.685 151.632C344.685 149.032 344.645 147.024 344.566 145.606C344.488 144.109 344.369 143.006 344.212 142.297C344.133 141.509 344.015 140.958 343.857 140.643C343.7 140.328 343.503 139.973 343.267 139.579C343.976 139.028 344.803 138.555 345.748 138.161C346.772 137.689 347.757 137.374 348.702 137.216C349.726 136.98 350.632 136.901 351.42 136.98C352.286 137.059 352.956 137.255 353.429 137.571C353.823 137.964 354.098 138.555 354.256 139.343C354.492 140.131 354.689 141.312 354.847 142.888C356.343 140.84 358.037 139.067 359.928 137.571C361.897 135.995 364.142 135.207 366.663 135.207ZM362.055 177.392C363.473 177.392 364.812 176.722 366.072 175.383C367.411 174.044 368.554 172.35 369.499 170.302C370.523 168.175 371.311 165.851 371.862 163.33C372.493 160.731 372.808 158.17 372.808 155.65C372.808 152.892 372.532 150.647 371.98 148.914C371.508 147.102 370.878 145.684 370.09 144.66C369.381 143.558 368.593 142.809 367.727 142.415C366.939 141.943 366.23 141.706 365.6 141.706C364.103 141.706 362.685 142.337 361.346 143.597C360.007 144.779 358.825 146.354 357.801 148.323C356.777 150.214 355.95 152.341 355.319 154.704C354.768 157.068 354.492 159.431 354.492 161.794C354.492 164 354.689 166.048 355.083 167.939C355.556 169.829 356.146 171.484 356.855 172.902C357.564 174.32 358.352 175.422 359.219 176.21C360.164 176.998 361.109 177.392 362.055 177.392Z" fill="white"/>
<g filter="url(#filter0_d_249_44)">
<circle cx="95" cy="67" r="5" fill="#1EB206"/>
</g>
<path d="M118.84 62.7946C436.126 30.0432 447.176 199.387 447.176 199.387" stroke="url(#paint0_linear_249_44)" stroke-width="7" stroke-linecap="round"/>
<g filter="url(#filter1_d_249_44)">
<line x1="459.042" y1="158.663" x2="373.558" y2="210.611" stroke="url(#paint1_linear_249_44)" stroke-width="6"/>
</g>
<defs>
<filter id="filter0_d_249_44" x="86" y="62" width="18" height="18" filterUnits="userSpaceOnUse" color-interpolation-filters="sRGB">
<feFlood flood-opacity="0" result="BackgroundImageFix"/>
<feColorMatrix in="SourceAlpha" type="matrix" values="0 0 0 0 0 0 0 0 0 0 0 0 0 0 0 0 0 0 127 0" result="hardAlpha"/>
<feOffset dy="4"/>
<feGaussianBlur stdDeviation="2"/>
<feComposite in2="hardAlpha" operator="out"/>
<feColorMatrix type="matrix" values="0 0 0 0 0 0 0 0 0 0 0 0 0 0 0 0 0 0 0.25 0"/>
<feBlend mode="normal" in2="BackgroundImageFix" result="effect1_dropShadow_249_44"/>
<feBlend mode="normal" in="SourceGraphic" in2="effect1_dropShadow_249_44" result="shape"/>
</filter>
<filter id="filter1_d_249_44" x="368" y="156.099" width="96.5996" height="65.0753" filterUnits="userSpaceOnUse" color-interpolation-filters="sRGB">
<feFlood flood-opacity="0" result="BackgroundImageFix"/>
<feColorMatrix in="SourceAlpha" type="matrix" values="0 0 0 0 0 0 0 0 0 0 0 0 0 0 0 0 0 0 127 0" result="hardAlpha"/>
<feOffset dy="4"/>
<feGaussianBlur stdDeviation="2"/>
<feComposite in2="hardAlpha" operator="out"/>
<feColorMatrix type="matrix" values="0 0 0 0 0 0 0 0 0 0 0 0 0 0 0 0 0 0 0.25 0"/>
<feBlend mode="normal" in2="BackgroundImageFix" result="effect1_dropShadow_249_44"/>
<feBlend mode="normal" in="SourceGraphic" in2="effect1_dropShadow_249_44" result="shape"/>
</filter>
<linearGradient id="paint0_linear_249_44" x1="342.302" y1="80.4404" x2="136.143" y2="76.1959" gradientUnits="userSpaceOnUse">
<stop stop-color="#11AE03"/>
<stop offset="1" stop-color="#29FF16" stop-opacity="0"/>
</linearGradient>
<linearGradient id="paint1_linear_249_44" x1="460.002" y1="155.056" x2="382.048" y2="211.388" gradientUnits="userSpaceOnUse">
<stop stop-color="#04DE00"/>
<stop offset="0.0001" stop-color="#04DA00"/>
<stop offset="0.9999" stop-color="#0A7908"/>
<stop offset="1" stop-color="#0A7908"/>
</linearGradient>
</defs>
</svg>
