<svg width="110" height="87" viewBox="0 0 110 87" fill="none" xmlns="http://www.w3.org/2000/svg">
<path d="M4.402 67.1801C4.402 65.7334 4.56733 64.3178 4.898 62.9331C5.24933 61.5278 5.735 60.2051 6.355 58.9651C6.975 57.7044 7.70867 56.5574 8.556 55.5241C9.424 54.4701 10.3643 53.5608 11.377 52.7961C12.4103 52.0314 13.5057 51.4424 14.663 51.0291C15.8203 50.5951 17.0087 50.3781 18.228 50.3781C19.654 50.3781 20.7597 50.6778 21.545 51.2771C22.351 51.8764 22.754 52.7134 22.754 53.7881C22.754 54.2014 22.692 54.6251 22.568 55.0591C22.4647 55.4931 22.2993 55.9271 22.072 56.3611C21.8653 56.7744 21.6173 57.1774 21.328 57.5701C21.0387 57.9628 20.7183 58.3038 20.367 58.5931C19.8297 58.5104 19.3647 58.2728 18.972 57.8801C18.5793 57.4668 18.3313 56.9914 18.228 56.4541C18.9513 55.8548 19.5197 55.2348 19.933 54.5941C20.367 53.9328 20.584 53.3334 20.584 52.7961C20.584 51.8868 20.0157 51.4321 18.879 51.4321C18.4037 51.4321 17.9077 51.5354 17.391 51.7421C16.895 51.9281 16.3887 52.1968 15.872 52.5481C15.3553 52.8994 14.849 53.3231 14.353 53.8191C13.8777 54.3151 13.4333 54.8628 13.02 55.4621C10.1473 59.5954 8.711 63.8218 8.711 68.1411C8.711 69.6704 8.94867 70.9001 9.424 71.8301C9.89933 72.7601 10.5297 73.3078 11.315 73.4731C12.2037 73.2664 13.33 72.6981 14.694 71.7681C16.058 70.8381 17.546 69.6291 19.158 68.1411C19.3647 68.3478 19.4887 68.5648 19.53 68.7921C18.9307 69.5774 18.3107 70.3318 17.67 71.0551C17.0293 71.7784 16.3887 72.4398 15.748 73.0391C15.128 73.6384 14.508 74.1654 13.888 74.6201C13.2887 75.0748 12.7307 75.4261 12.214 75.6741C9.65133 75.6328 7.70867 74.8991 6.386 73.4731C5.06333 72.0471 4.402 69.9494 4.402 67.1801ZM25.2226 74.3411C24.0446 74.2171 23.1043 73.7004 22.4016 72.7911C21.699 71.8818 21.3476 70.7244 21.3476 69.3191C21.3476 68.4924 21.4716 67.6348 21.7196 66.7461C21.9676 65.8574 22.319 64.9998 22.7736 64.1731C23.2283 63.3258 23.7656 62.5301 24.3856 61.7861C25.0056 61.0421 25.6773 60.4014 26.4006 59.8641C27.5373 59.0168 28.6016 58.5931 29.5936 58.5931C30.255 58.9444 30.906 59.6781 31.5466 60.7941C31.65 60.7941 31.743 60.7941 31.8256 60.7941C31.9083 60.7734 32.0013 60.7631 32.1046 60.7631C33.2 60.7631 33.7476 61.7344 33.7476 63.6771C33.7476 64.9791 33.5306 66.2191 33.0966 67.3971C32.6833 68.5544 32.0943 69.6084 31.3296 70.5591C30.5856 71.5098 29.6866 72.3158 28.6326 72.9771C27.5993 73.6178 26.4626 74.0724 25.2226 74.3411ZM26.8036 64.5761C26.4523 65.0514 26.1216 65.5681 25.8116 66.1261C25.5016 66.6841 25.233 67.2524 25.0056 67.8311C24.7783 68.3891 24.6026 68.9368 24.4786 69.4741C24.3546 69.9908 24.2926 70.4558 24.2926 70.8691C24.2926 71.3651 24.3753 71.8404 24.5406 72.2951C24.706 72.7498 24.892 73.0081 25.0986 73.0701C26.0286 72.8634 26.876 72.4811 27.6406 71.9231C28.426 71.3444 29.0976 70.6314 29.6556 69.7841C30.2343 68.9368 30.6786 67.9758 30.9886 66.9011C31.3193 65.8264 31.4846 64.6794 31.4846 63.4601C31.4846 62.9228 31.4536 62.4991 31.3916 62.1891C31.3296 61.8791 31.2263 61.6104 31.0816 61.3831C30.1723 61.6518 29.356 62.0858 28.6326 62.6851C27.93 63.2844 27.3203 63.9148 26.8036 64.5761ZM40.2702 58.2211C40.8075 58.3864 41.3139 58.7584 41.7892 59.3371C42.2645 59.8951 42.6159 60.5151 42.8432 61.1971C42.6159 61.7551 42.2645 62.4268 41.7892 63.2121C41.3139 63.9974 40.8385 64.8034 40.3632 65.6301C39.8879 66.4361 39.4539 67.2111 39.0612 67.9551C38.6892 68.6784 38.4722 69.2778 38.4102 69.7531C38.7409 69.4018 39.1025 68.9988 39.4952 68.5441C39.9085 68.0688 40.3012 67.6038 40.6732 67.1491C41.0659 66.6738 41.4275 66.2501 41.7582 65.8781C42.0889 65.4854 42.3472 65.1961 42.5332 65.0101C42.9259 64.5968 43.3909 64.1214 43.9282 63.5841C44.4655 63.0261 45.0235 62.5094 45.6022 62.0341C46.2015 61.5381 46.8009 61.1248 47.4002 60.7941C47.9995 60.4428 48.5472 60.2671 49.0432 60.2671C49.5805 60.2671 50.0249 60.4531 50.3762 60.8251C50.7482 61.1764 51.0375 61.5484 51.2442 61.9411C51.2442 61.9824 51.1615 62.0444 50.9962 62.1271C50.8515 62.1891 50.6345 62.3854 50.3452 62.7161C50.0559 63.0881 49.7252 63.6048 49.3532 64.2661C49.0019 64.9068 48.6505 65.6094 48.2992 66.3741C47.9685 67.1181 47.6895 67.8828 47.4622 68.6681C47.2349 69.4534 47.1212 70.1664 47.1212 70.8071C47.1212 71.3238 47.1832 71.6544 47.3072 71.7991C47.4519 71.9438 47.6482 72.0161 47.8962 72.0161C48.1235 72.0161 48.3612 71.9644 48.6092 71.8611C48.8572 71.7578 49.0535 71.7061 49.1982 71.7061C49.2809 71.7474 49.3429 71.8404 49.3842 71.9851C49.4462 72.1091 49.4772 72.2228 49.4772 72.3261C49.3119 72.4708 49.1155 72.6154 48.8882 72.7601C48.6609 72.9048 48.4232 73.0391 48.1752 73.1631C47.9272 73.2871 47.6792 73.3904 47.4312 73.4731C47.2039 73.5558 46.9972 73.5971 46.8112 73.5971C46.2119 73.5971 45.7159 73.5041 45.3232 73.3181C44.9512 73.1528 44.6515 72.9254 44.4242 72.6361C44.2175 72.3468 44.0729 72.0058 43.9902 71.6131C43.9075 71.1998 43.8662 70.7658 43.8662 70.3111C43.8662 70.0631 43.8869 69.7841 43.9282 69.4741C43.9695 69.1641 44.0522 68.8024 44.1762 68.3891C44.3002 67.9551 44.4759 67.4488 44.7032 66.8701C44.9305 66.2708 45.2199 65.5578 45.5712 64.7311C45.5299 64.7311 45.2509 64.8758 44.7342 65.1651C44.2175 65.4544 43.6595 65.8988 43.0602 66.4981C42.0889 67.4281 41.2105 68.3478 40.4252 69.2571C39.6605 70.1664 38.8752 71.1791 38.0692 72.2951C37.6145 72.9358 37.2115 73.4731 36.8602 73.9071C36.5295 74.3618 36.2402 74.6614 35.9922 74.8061C35.5582 74.5581 35.2379 74.2068 35.0312 73.7521C34.8245 73.3181 34.6695 72.8634 34.5662 72.3881C34.5662 71.9954 34.6179 71.4994 34.7212 70.9001C34.8452 70.3008 35.0002 69.6394 35.1862 68.9161C35.3929 68.1721 35.6409 67.3971 35.9302 66.5911C36.2195 65.7851 36.5399 64.9791 36.8912 64.1731C37.6765 62.3544 38.3895 60.9284 39.0302 59.8951C39.6915 58.8618 40.1049 58.3038 40.2702 58.2211ZM57.0114 58.2211C57.5488 58.3864 58.0551 58.7584 58.5304 59.3371C59.0058 59.8951 59.3571 60.5151 59.5844 61.1971C59.3571 61.7551 59.0058 62.4268 58.5304 63.2121C58.0551 63.9974 57.5798 64.8034 57.1044 65.6301C56.6291 66.4361 56.1951 67.2111 55.8024 67.9551C55.4304 68.6784 55.2134 69.2778 55.1514 69.7531C55.4821 69.4018 55.8438 68.9988 56.2364 68.5441C56.6498 68.0688 57.0424 67.6038 57.4144 67.1491C57.8071 66.6738 58.1688 66.2501 58.4994 65.8781C58.8301 65.4854 59.0884 65.1961 59.2744 65.0101C59.6671 64.5968 60.1321 64.1214 60.6694 63.5841C61.2068 63.0261 61.7648 62.5094 62.3434 62.0341C62.9428 61.5381 63.5421 61.1248 64.1414 60.7941C64.7408 60.4428 65.2884 60.2671 65.7844 60.2671C66.3218 60.2671 66.7661 60.4531 67.1174 60.8251C67.4894 61.1764 67.7788 61.5484 67.9854 61.9411C67.9854 61.9824 67.9028 62.0444 67.7374 62.1271C67.5928 62.1891 67.3758 62.3854 67.0864 62.7161C66.7971 63.0881 66.4664 63.6048 66.0944 64.2661C65.7431 64.9068 65.3918 65.6094 65.0404 66.3741C64.7098 67.1181 64.4308 67.8828 64.2034 68.6681C63.9761 69.4534 63.8624 70.1664 63.8624 70.8071C63.8624 71.3238 63.9244 71.6544 64.0484 71.7991C64.1931 71.9438 64.3894 72.0161 64.6374 72.0161C64.8648 72.0161 65.1024 71.9644 65.3504 71.8611C65.5984 71.7578 65.7948 71.7061 65.9394 71.7061C66.0221 71.7474 66.0841 71.8404 66.1254 71.9851C66.1874 72.1091 66.2184 72.2228 66.2184 72.3261C66.0531 72.4708 65.8568 72.6154 65.6294 72.7601C65.4021 72.9048 65.1644 73.0391 64.9164 73.1631C64.6684 73.2871 64.4204 73.3904 64.1724 73.4731C63.9451 73.5558 63.7384 73.5971 63.5524 73.5971C62.9531 73.5971 62.4571 73.5041 62.0644 73.3181C61.6924 73.1528 61.3928 72.9254 61.1654 72.6361C60.9588 72.3468 60.8141 72.0058 60.7314 71.6131C60.6488 71.1998 60.6074 70.7658 60.6074 70.3111C60.6074 70.0631 60.6281 69.7841 60.6694 69.4741C60.7108 69.1641 60.7934 68.8024 60.9174 68.3891C61.0414 67.9551 61.2171 67.4488 61.4444 66.8701C61.6718 66.2708 61.9611 65.5578 62.3124 64.7311C62.2711 64.7311 61.9921 64.8758 61.4754 65.1651C60.9588 65.4544 60.4008 65.8988 59.8014 66.4981C58.8301 67.4281 57.9518 68.3478 57.1664 69.2571C56.4018 70.1664 55.6164 71.1791 54.8104 72.2951C54.3558 72.9358 53.9528 73.4731 53.6014 73.9071C53.2708 74.3618 52.9814 74.6614 52.7334 74.8061C52.2994 74.5581 51.9791 74.2068 51.7724 73.7521C51.5658 73.3181 51.4108 72.8634 51.3074 72.3881C51.3074 71.9954 51.3591 71.4994 51.4624 70.9001C51.5864 70.3008 51.7414 69.6394 51.9274 68.9161C52.1341 68.1721 52.3821 67.3971 52.6714 66.5911C52.9608 65.7851 53.2811 64.9791 53.6324 64.1731C54.4178 62.3544 55.1308 60.9284 55.7714 59.8951C56.4328 58.8618 56.8461 58.3038 57.0114 58.2211ZM79.8286 60.4221C79.746 61.7034 79.5186 62.8091 79.1466 63.7391C78.7746 64.6484 78.2373 65.4544 77.5346 66.1571C76.8526 66.8391 76.0156 67.4591 75.0236 68.0171C74.0316 68.5751 72.8743 69.1124 71.5516 69.6291C71.5516 69.7531 71.5413 69.8874 71.5206 70.0321C71.5206 70.1561 71.5206 70.2904 71.5206 70.4351C71.5206 70.7038 71.5413 70.9828 71.5826 71.2721C71.624 71.5614 71.6963 71.8301 71.7996 72.0781C71.903 72.3261 72.0476 72.5328 72.2336 72.6981C72.4196 72.8428 72.6573 72.9151 72.9466 72.9151C73.5046 72.9151 74.0523 72.7911 74.5896 72.5431C75.127 72.2951 75.6333 71.9954 76.1086 71.6441C76.6046 71.2721 77.0593 70.8794 77.4726 70.4661C77.9066 70.0321 78.289 69.6394 78.6196 69.2881C78.8263 69.4741 79.002 69.6498 79.1466 69.8151C78.2166 71.0551 77.1936 72.0884 76.0776 72.9151C74.9823 73.7211 73.9386 74.2378 72.9466 74.4651C71.5206 74.2998 70.4046 73.7831 69.5986 72.9151C68.8133 72.0264 68.4206 70.9621 68.4206 69.7221C68.4206 68.8748 68.5343 68.0171 68.7616 67.1491C69.0096 66.2604 69.3403 65.4131 69.7536 64.6071C70.1876 63.7804 70.6836 63.0054 71.2416 62.2821C71.8203 61.5588 72.43 60.9284 73.0706 60.3911C73.732 59.8538 74.4036 59.4301 75.0856 59.1201C75.7883 58.8101 76.4806 58.6551 77.1626 58.6551C78.1133 58.7791 79.002 59.3681 79.8286 60.4221ZM77.6896 61.4451C77.1316 61.5278 76.553 61.7551 75.9536 62.1271C75.3543 62.4991 74.786 62.9951 74.2486 63.6151C73.732 64.2351 73.2566 64.9584 72.8226 65.7851C72.3886 66.6118 72.0476 67.5004 71.7996 68.4511C73.453 67.6244 74.8273 66.6118 75.9226 65.4131C77.018 64.1938 77.607 62.8711 77.6896 61.4451ZM81.4498 67.8001C81.4498 66.6221 81.6875 65.4854 82.1628 64.3901C82.6588 63.2741 83.2995 62.2924 84.0848 61.4451C84.8908 60.5771 85.8002 59.8848 86.8128 59.3681C87.8462 58.8308 88.9105 58.5621 90.0058 58.5621C91.0805 58.5621 91.9072 58.8308 92.4858 59.3681C93.0645 59.9054 93.3538 60.6701 93.3538 61.6621C93.3538 62.1374 93.2815 62.6024 93.1368 63.0571C93.0128 63.4911 92.8372 63.8838 92.6098 64.2351C92.4032 64.5864 92.1552 64.8758 91.8658 65.1031C91.5765 65.3098 91.2872 65.4131 90.9978 65.4131C90.7498 65.4131 90.4915 65.3408 90.2228 65.1961C89.9748 65.0308 89.7682 64.8241 89.6028 64.5761C90.9875 63.3154 91.6798 62.1684 91.6798 61.1351C91.6798 60.5358 91.4422 60.2361 90.9668 60.2361C90.5535 60.2361 90.0368 60.4324 89.4168 60.8251C88.7968 61.2178 88.1975 61.7344 87.6188 62.3751C86.7302 63.3671 86.0482 64.4728 85.5728 65.6921C85.1182 66.8908 84.8908 68.1514 84.8908 69.4741C84.8908 71.1481 85.2628 72.1504 86.0068 72.4811C86.3168 72.4398 86.6785 72.3468 87.0918 72.2021C87.5052 72.0574 87.9495 71.8714 88.4248 71.6441C88.9002 71.3961 89.3858 71.1171 89.8818 70.8071C90.3985 70.4971 90.8945 70.1664 91.3698 69.8151C91.4525 69.8771 91.5248 69.9701 91.5868 70.0941C91.6488 70.2181 91.6798 70.3318 91.6798 70.4351C91.3285 70.8691 90.9255 71.2928 90.4708 71.7061C90.0162 72.1194 89.5408 72.5018 89.0448 72.8531C88.5488 73.1838 88.0632 73.4628 87.5878 73.6901C87.1332 73.9381 86.7302 74.0931 86.3788 74.1551C85.6968 74.0931 85.0562 73.8761 84.4568 73.5041C83.8575 73.1528 83.3305 72.6878 82.8758 72.1091C82.4418 71.5304 82.0905 70.8691 81.8218 70.1251C81.5738 69.3811 81.4498 68.6061 81.4498 67.8001ZM95.9893 61.3831C95.886 61.2591 95.793 61.0008 95.7103 60.6081C95.6277 60.1948 95.5863 59.8434 95.5863 59.5541C96.1237 59.5954 96.6403 59.6368 97.1363 59.6781C97.6323 59.6988 98.087 59.7194 98.5003 59.7401C98.8103 59.1201 99.141 58.5104 99.4923 57.9111C99.8643 57.2911 100.216 56.7331 100.546 56.2371C100.898 55.7204 101.218 55.2864 101.507 54.9351C101.817 54.5838 102.055 54.3564 102.22 54.2531C102.427 54.2531 102.685 54.2944 102.995 54.3771C103.326 54.4391 103.657 54.5321 103.987 54.6561C104.318 54.7594 104.618 54.8731 104.886 54.9971C105.155 55.1211 105.341 55.2451 105.444 55.3691C104.824 56.1544 104.287 56.8881 103.832 57.5701C103.398 58.2314 102.923 58.9961 102.406 59.8641C102.82 59.8641 103.233 59.8538 103.646 59.8331C104.08 59.8124 104.514 59.7814 104.948 59.7401C105.052 59.8434 105.134 59.9778 105.196 60.1431C105.258 60.2878 105.289 60.4428 105.289 60.6081C104.277 60.9801 103.047 61.1868 101.6 61.2281C101.084 62.2201 100.619 63.2121 100.205 64.2041C99.8127 65.1754 99.4717 66.1158 99.1823 67.0251C98.9137 67.9344 98.6967 68.7921 98.5313 69.5981C98.3867 70.4041 98.3143 71.1274 98.3143 71.7681C98.3143 72.6774 98.6553 73.1838 99.3373 73.2871C99.9573 73.2044 100.546 73.0494 101.104 72.8221C101.662 72.5948 102.158 72.3054 102.592 71.9541C102.716 72.1401 102.789 72.2951 102.809 72.4191C102.685 72.6051 102.468 72.8221 102.158 73.0701C101.869 73.3181 101.549 73.5558 101.197 73.7831C100.846 74.0311 100.505 74.2378 100.174 74.4031C99.8437 74.5684 99.5957 74.6614 99.4303 74.6821C98.9137 74.6614 98.397 74.5478 97.8803 74.3411C97.3637 74.1344 96.8883 73.8761 96.4543 73.5661C96.041 73.2561 95.7 72.9151 95.4313 72.5431C95.1627 72.1504 95.0283 71.7681 95.0283 71.3961C95.0283 70.9001 95.0903 70.2801 95.2143 69.5361C95.359 68.7714 95.5553 67.9448 95.8033 67.0561C96.0513 66.1674 96.3407 65.2374 96.6713 64.2661C97.002 63.2948 97.3637 62.3338 97.7563 61.3831H95.9893ZM105.927 74.4341C105.596 74.3928 105.245 74.2481 104.873 74.0001C104.521 73.7728 104.294 73.5144 104.191 73.2251C104.191 72.9771 104.222 72.6568 104.284 72.2641C104.366 71.8714 104.459 71.4788 104.563 71.0861C104.666 70.6728 104.769 70.2904 104.873 69.9391C104.976 69.5671 105.048 69.2881 105.09 69.1021C105.338 69.1021 105.648 69.1641 106.02 69.2881C106.412 69.4121 106.805 69.5878 107.198 69.8151C107.611 70.0218 107.993 70.2698 108.345 70.5591C108.717 70.8278 108.996 71.1068 109.182 71.3961C108.996 71.8094 108.758 72.2021 108.469 72.5741C108.179 72.9461 107.869 73.2664 107.539 73.5351C107.229 73.8244 106.929 74.0414 106.64 74.1861C106.35 74.3514 106.113 74.4341 105.927 74.4341Z" fill="url(#paint0_linear_153_57)"/>
<path d="M80.8284 23.9392C80.7987 38.6234 70.9743 50.5075 58.8851 50.483C46.7958 50.4585 37.0197 38.5348 37.0494 23.8505C72.9267 -4.77527 46.818 39.4856 58.9073 39.5101C70.9965 39.5346 46.4606 -37.7476 80.8284 23.9392Z" fill="url(#paint1_linear_153_57)"/>
<defs>
<linearGradient id="paint0_linear_153_57" x1="55" y1="39.2561" x2="55.1506" y2="86.7267" gradientUnits="userSpaceOnUse">
<stop stop-color="#01FF4D"/>
<stop offset="1" stop-color="#00F0FF"/>
</linearGradient>
<linearGradient id="paint1_linear_153_57" x1="58.9872" y1="0.0443096" x2="59.3079" y2="50.1921" gradientUnits="userSpaceOnUse">
<stop stop-color="#01FF4D"/>
<stop offset="1" stop-color="#00F0FF"/>
</linearGradient>
</defs>
</svg>
