<svg width="28" height="27" viewBox="0 0 28 27" fill="none" xmlns="http://www.w3.org/2000/svg">
<path d="M20.0628 17.0798L21.3002 18.273L26.25 13.5L21.3002 8.72702L20.0628 9.92029L22.9001 12.6563H10.5V14.3438H22.9001L20.0628 17.0798Z" fill="white"/>
<path d="M21.4097 20.6595C19.4266 22.5718 16.79 23.625 13.9856 23.625C11.1808 23.625 8.54383 22.5718 6.56053 20.6595C4.57718 18.7471 3.5 16.2045 3.5 13.5C3.5 10.7957 4.57718 8.25319 6.56059 6.34073C8.54394 4.42826 11.1809 3.375 13.9856 3.375C16.7899 3.375 19.4265 4.42826 21.4097 6.34068C21.5472 6.47358 21.6809 6.61007 21.8107 6.75H24.0382C21.8247 3.68993 18.1478 1.6875 13.9856 1.6875C7.2199 1.6875 1.75 6.97665 1.75 13.5C1.75 20.024 7.2199 25.3125 13.9856 25.3125C18.1479 25.3125 21.825 23.3102 24.0383 20.25H21.8109C21.6811 20.39 21.5473 20.5266 21.4097 20.6595Z" fill="white"/>
</svg>
