<svg width="110" height="82" viewBox="0 0 110 82" fill="none" xmlns="http://www.w3.org/2000/svg">
<path d="M4.402 64.924C4.402 63.4773 4.56733 62.0617 4.898 60.677C5.24933 59.2717 5.735 57.949 6.355 56.709C6.975 55.4483 7.70867 54.3013 8.556 53.268C9.424 52.214 10.3643 51.3047 11.377 50.54C12.4103 49.7753 13.5057 49.1863 14.663 48.773C15.8203 48.339 17.0087 48.122 18.228 48.122C19.654 48.122 20.7597 48.4217 21.545 49.021C22.351 49.6203 22.754 50.4573 22.754 51.532C22.754 51.9453 22.692 52.369 22.568 52.803C22.4647 53.237 22.2993 53.671 22.072 54.105C21.8653 54.5183 21.6173 54.9213 21.328 55.314C21.0387 55.7067 20.7183 56.0477 20.367 56.337C19.8297 56.2543 19.3647 56.0167 18.972 55.624C18.5793 55.2107 18.3313 54.7353 18.228 54.198C18.9513 53.5987 19.5197 52.9787 19.933 52.338C20.367 51.6767 20.584 51.0773 20.584 50.54C20.584 49.6307 20.0157 49.176 18.879 49.176C18.4037 49.176 17.9077 49.2793 17.391 49.486C16.895 49.672 16.3887 49.9407 15.872 50.292C15.3553 50.6433 14.849 51.067 14.353 51.563C13.8777 52.059 13.4333 52.6067 13.02 53.206C10.1473 57.3393 8.711 61.5657 8.711 65.885C8.711 67.4143 8.94867 68.644 9.424 69.574C9.89933 70.504 10.5297 71.0517 11.315 71.217C12.2037 71.0103 13.33 70.442 14.694 69.512C16.058 68.582 17.546 67.373 19.158 65.885C19.3647 66.0917 19.4887 66.3087 19.53 66.536C18.9307 67.3213 18.3107 68.0757 17.67 68.799C17.0293 69.5223 16.3887 70.1837 15.748 70.783C15.128 71.3823 14.508 71.9093 13.888 72.364C13.2887 72.8187 12.7307 73.17 12.214 73.418C9.65133 73.3767 7.70867 72.643 6.386 71.217C5.06333 69.791 4.402 67.6933 4.402 64.924ZM25.2226 72.085C24.0446 71.961 23.1043 71.4443 22.4016 70.535C21.699 69.6257 21.3476 68.4683 21.3476 67.063C21.3476 66.2363 21.4716 65.3787 21.7196 64.49C21.9676 63.6013 22.319 62.7437 22.7736 61.917C23.2283 61.0697 23.7656 60.274 24.3856 59.53C25.0056 58.786 25.6773 58.1453 26.4006 57.608C27.5373 56.7607 28.6016 56.337 29.5936 56.337C30.255 56.6883 30.906 57.422 31.5466 58.538C31.65 58.538 31.743 58.538 31.8256 58.538C31.9083 58.5173 32.0013 58.507 32.1046 58.507C33.2 58.507 33.7476 59.4783 33.7476 61.421C33.7476 62.723 33.5306 63.963 33.0966 65.141C32.6833 66.2983 32.0943 67.3523 31.3296 68.303C30.5856 69.2537 29.6866 70.0597 28.6326 70.721C27.5993 71.3617 26.4626 71.8163 25.2226 72.085ZM26.8036 62.32C26.4523 62.7953 26.1216 63.312 25.8116 63.87C25.5016 64.428 25.233 64.9963 25.0056 65.575C24.7783 66.133 24.6026 66.6807 24.4786 67.218C24.3546 67.7347 24.2926 68.1997 24.2926 68.613C24.2926 69.109 24.3753 69.5843 24.5406 70.039C24.706 70.4937 24.892 70.752 25.0986 70.814C26.0286 70.6073 26.876 70.225 27.6406 69.667C28.426 69.0883 29.0976 68.3753 29.6556 67.528C30.2343 66.6807 30.6786 65.7197 30.9886 64.645C31.3193 63.5703 31.4846 62.4233 31.4846 61.204C31.4846 60.6667 31.4536 60.243 31.3916 59.933C31.3296 59.623 31.2263 59.3543 31.0816 59.127C30.1723 59.3957 29.356 59.8297 28.6326 60.429C27.93 61.0283 27.3203 61.6587 26.8036 62.32ZM40.2702 55.965C40.8075 56.1303 41.3139 56.5023 41.7892 57.081C42.2645 57.639 42.6159 58.259 42.8432 58.941C42.6159 59.499 42.2645 60.1707 41.7892 60.956C41.3139 61.7413 40.8385 62.5473 40.3632 63.374C39.8879 64.18 39.4539 64.955 39.0612 65.699C38.6892 66.4223 38.4722 67.0217 38.4102 67.497C38.7409 67.1457 39.1025 66.7427 39.4952 66.288C39.9085 65.8127 40.3012 65.3477 40.6732 64.893C41.0659 64.4177 41.4275 63.994 41.7582 63.622C42.0889 63.2293 42.3472 62.94 42.5332 62.754C42.9259 62.3407 43.3909 61.8653 43.9282 61.328C44.4655 60.77 45.0235 60.2533 45.6022 59.778C46.2015 59.282 46.8009 58.8687 47.4002 58.538C47.9995 58.1867 48.5472 58.011 49.0432 58.011C49.5805 58.011 50.0249 58.197 50.3762 58.569C50.7482 58.9203 51.0375 59.2923 51.2442 59.685C51.2442 59.7263 51.1615 59.7883 50.9962 59.871C50.8515 59.933 50.6345 60.1293 50.3452 60.46C50.0559 60.832 49.7252 61.3487 49.3532 62.01C49.0019 62.6507 48.6505 63.3533 48.2992 64.118C47.9685 64.862 47.6895 65.6267 47.4622 66.412C47.2349 67.1973 47.1212 67.9103 47.1212 68.551C47.1212 69.0677 47.1832 69.3983 47.3072 69.543C47.4519 69.6877 47.6482 69.76 47.8962 69.76C48.1235 69.76 48.3612 69.7083 48.6092 69.605C48.8572 69.5017 49.0535 69.45 49.1982 69.45C49.2809 69.4913 49.3429 69.5843 49.3842 69.729C49.4462 69.853 49.4772 69.9667 49.4772 70.07C49.3119 70.2147 49.1155 70.3593 48.8882 70.504C48.6609 70.6487 48.4232 70.783 48.1752 70.907C47.9272 71.031 47.6792 71.1343 47.4312 71.217C47.2039 71.2997 46.9972 71.341 46.8112 71.341C46.2119 71.341 45.7159 71.248 45.3232 71.062C44.9512 70.8967 44.6515 70.6693 44.4242 70.38C44.2175 70.0907 44.0729 69.7497 43.9902 69.357C43.9075 68.9437 43.8662 68.5097 43.8662 68.055C43.8662 67.807 43.8869 67.528 43.9282 67.218C43.9695 66.908 44.0522 66.5463 44.1762 66.133C44.3002 65.699 44.4759 65.1927 44.7032 64.614C44.9305 64.0147 45.2199 63.3017 45.5712 62.475C45.5299 62.475 45.2509 62.6197 44.7342 62.909C44.2175 63.1983 43.6595 63.6427 43.0602 64.242C42.0889 65.172 41.2105 66.0917 40.4252 67.001C39.6605 67.9103 38.8752 68.923 38.0692 70.039C37.6145 70.6797 37.2115 71.217 36.8602 71.651C36.5295 72.1057 36.2402 72.4053 35.9922 72.55C35.5582 72.302 35.2379 71.9507 35.0312 71.496C34.8245 71.062 34.6695 70.6073 34.5662 70.132C34.5662 69.7393 34.6179 69.2433 34.7212 68.644C34.8452 68.0447 35.0002 67.3833 35.1862 66.66C35.3929 65.916 35.6409 65.141 35.9302 64.335C36.2195 63.529 36.5399 62.723 36.8912 61.917C37.6765 60.0983 38.3895 58.6723 39.0302 57.639C39.6915 56.6057 40.1049 56.0477 40.2702 55.965ZM57.0114 55.965C57.5488 56.1303 58.0551 56.5023 58.5304 57.081C59.0058 57.639 59.3571 58.259 59.5844 58.941C59.3571 59.499 59.0058 60.1707 58.5304 60.956C58.0551 61.7413 57.5798 62.5473 57.1044 63.374C56.6291 64.18 56.1951 64.955 55.8024 65.699C55.4304 66.4223 55.2134 67.0217 55.1514 67.497C55.4821 67.1457 55.8438 66.7427 56.2364 66.288C56.6498 65.8127 57.0424 65.3477 57.4144 64.893C57.8071 64.4177 58.1688 63.994 58.4994 63.622C58.8301 63.2293 59.0884 62.94 59.2744 62.754C59.6671 62.3407 60.1321 61.8653 60.6694 61.328C61.2068 60.77 61.7648 60.2533 62.3434 59.778C62.9428 59.282 63.5421 58.8687 64.1414 58.538C64.7408 58.1867 65.2884 58.011 65.7844 58.011C66.3218 58.011 66.7661 58.197 67.1174 58.569C67.4894 58.9203 67.7788 59.2923 67.9854 59.685C67.9854 59.7263 67.9028 59.7883 67.7374 59.871C67.5928 59.933 67.3758 60.1293 67.0864 60.46C66.7971 60.832 66.4664 61.3487 66.0944 62.01C65.7431 62.6507 65.3918 63.3533 65.0404 64.118C64.7098 64.862 64.4308 65.6267 64.2034 66.412C63.9761 67.1973 63.8624 67.9103 63.8624 68.551C63.8624 69.0677 63.9244 69.3983 64.0484 69.543C64.1931 69.6877 64.3894 69.76 64.6374 69.76C64.8648 69.76 65.1024 69.7083 65.3504 69.605C65.5984 69.5017 65.7948 69.45 65.9394 69.45C66.0221 69.4913 66.0841 69.5843 66.1254 69.729C66.1874 69.853 66.2184 69.9667 66.2184 70.07C66.0531 70.2147 65.8568 70.3593 65.6294 70.504C65.4021 70.6487 65.1644 70.783 64.9164 70.907C64.6684 71.031 64.4204 71.1343 64.1724 71.217C63.9451 71.2997 63.7384 71.341 63.5524 71.341C62.9531 71.341 62.4571 71.248 62.0644 71.062C61.6924 70.8967 61.3928 70.6693 61.1654 70.38C60.9588 70.0907 60.8141 69.7497 60.7314 69.357C60.6488 68.9437 60.6074 68.5097 60.6074 68.055C60.6074 67.807 60.6281 67.528 60.6694 67.218C60.7108 66.908 60.7934 66.5463 60.9174 66.133C61.0414 65.699 61.2171 65.1927 61.4444 64.614C61.6718 64.0147 61.9611 63.3017 62.3124 62.475C62.2711 62.475 61.9921 62.6197 61.4754 62.909C60.9588 63.1983 60.4008 63.6427 59.8014 64.242C58.8301 65.172 57.9518 66.0917 57.1664 67.001C56.4018 67.9103 55.6164 68.923 54.8104 70.039C54.3558 70.6797 53.9528 71.217 53.6014 71.651C53.2708 72.1057 52.9814 72.4053 52.7334 72.55C52.2994 72.302 51.9791 71.9507 51.7724 71.496C51.5658 71.062 51.4108 70.6073 51.3074 70.132C51.3074 69.7393 51.3591 69.2433 51.4624 68.644C51.5864 68.0447 51.7414 67.3833 51.9274 66.66C52.1341 65.916 52.3821 65.141 52.6714 64.335C52.9608 63.529 53.2811 62.723 53.6324 61.917C54.4178 60.0983 55.1308 58.6723 55.7714 57.639C56.4328 56.6057 56.8461 56.0477 57.0114 55.965ZM79.8286 58.166C79.746 59.4473 79.5186 60.553 79.1466 61.483C78.7746 62.3923 78.2373 63.1983 77.5346 63.901C76.8526 64.583 76.0156 65.203 75.0236 65.761C74.0316 66.319 72.8743 66.8563 71.5516 67.373C71.5516 67.497 71.5413 67.6313 71.5206 67.776C71.5206 67.9 71.5206 68.0343 71.5206 68.179C71.5206 68.4477 71.5413 68.7267 71.5826 69.016C71.624 69.3053 71.6963 69.574 71.7996 69.822C71.903 70.07 72.0476 70.2767 72.2336 70.442C72.4196 70.5867 72.6573 70.659 72.9466 70.659C73.5046 70.659 74.0523 70.535 74.5896 70.287C75.127 70.039 75.6333 69.7393 76.1086 69.388C76.6046 69.016 77.0593 68.6233 77.4726 68.21C77.9066 67.776 78.289 67.3833 78.6196 67.032C78.8263 67.218 79.002 67.3937 79.1466 67.559C78.2166 68.799 77.1936 69.8323 76.0776 70.659C74.9823 71.465 73.9386 71.9817 72.9466 72.209C71.5206 72.0437 70.4046 71.527 69.5986 70.659C68.8133 69.7703 68.4206 68.706 68.4206 67.466C68.4206 66.6187 68.5343 65.761 68.7616 64.893C69.0096 64.0043 69.3403 63.157 69.7536 62.351C70.1876 61.5243 70.6836 60.7493 71.2416 60.026C71.8203 59.3027 72.43 58.6723 73.0706 58.135C73.732 57.5977 74.4036 57.174 75.0856 56.864C75.7883 56.554 76.4806 56.399 77.1626 56.399C78.1133 56.523 79.002 57.112 79.8286 58.166ZM77.6896 59.189C77.1316 59.2717 76.553 59.499 75.9536 59.871C75.3543 60.243 74.786 60.739 74.2486 61.359C73.732 61.979 73.2566 62.7023 72.8226 63.529C72.3886 64.3557 72.0476 65.2443 71.7996 66.195C73.453 65.3683 74.8273 64.3557 75.9226 63.157C77.018 61.9377 77.607 60.615 77.6896 59.189ZM81.4498 65.544C81.4498 64.366 81.6875 63.2293 82.1628 62.134C82.6588 61.018 83.2995 60.0363 84.0848 59.189C84.8908 58.321 85.8002 57.6287 86.8128 57.112C87.8462 56.5747 88.9105 56.306 90.0058 56.306C91.0805 56.306 91.9072 56.5747 92.4858 57.112C93.0645 57.6493 93.3538 58.414 93.3538 59.406C93.3538 59.8813 93.2815 60.3463 93.1368 60.801C93.0128 61.235 92.8372 61.6277 92.6098 61.979C92.4032 62.3303 92.1552 62.6197 91.8658 62.847C91.5765 63.0537 91.2872 63.157 90.9978 63.157C90.7498 63.157 90.4915 63.0847 90.2228 62.94C89.9748 62.7747 89.7682 62.568 89.6028 62.32C90.9875 61.0593 91.6798 59.9123 91.6798 58.879C91.6798 58.2797 91.4422 57.98 90.9668 57.98C90.5535 57.98 90.0368 58.1763 89.4168 58.569C88.7968 58.9617 88.1975 59.4783 87.6188 60.119C86.7302 61.111 86.0482 62.2167 85.5728 63.436C85.1182 64.6347 84.8908 65.8953 84.8908 67.218C84.8908 68.892 85.2628 69.8943 86.0068 70.225C86.3168 70.1837 86.6785 70.0907 87.0918 69.946C87.5052 69.8013 87.9495 69.6153 88.4248 69.388C88.9002 69.14 89.3858 68.861 89.8818 68.551C90.3985 68.241 90.8945 67.9103 91.3698 67.559C91.4525 67.621 91.5248 67.714 91.5868 67.838C91.6488 67.962 91.6798 68.0757 91.6798 68.179C91.3285 68.613 90.9255 69.0367 90.4708 69.45C90.0162 69.8633 89.5408 70.2457 89.0448 70.597C88.5488 70.9277 88.0632 71.2067 87.5878 71.434C87.1332 71.682 86.7302 71.837 86.3788 71.899C85.6968 71.837 85.0562 71.62 84.4568 71.248C83.8575 70.8967 83.3305 70.4317 82.8758 69.853C82.4418 69.2743 82.0905 68.613 81.8218 67.869C81.5738 67.125 81.4498 66.35 81.4498 65.544ZM95.9893 59.127C95.886 59.003 95.793 58.7447 95.7103 58.352C95.6277 57.9387 95.5863 57.5873 95.5863 57.298C96.1237 57.3393 96.6403 57.3807 97.1363 57.422C97.6323 57.4427 98.087 57.4633 98.5003 57.484C98.8103 56.864 99.141 56.2543 99.4923 55.655C99.8643 55.035 100.216 54.477 100.546 53.981C100.898 53.4643 101.218 53.0303 101.507 52.679C101.817 52.3277 102.055 52.1003 102.22 51.997C102.427 51.997 102.685 52.0383 102.995 52.121C103.326 52.183 103.657 52.276 103.987 52.4C104.318 52.5033 104.618 52.617 104.886 52.741C105.155 52.865 105.341 52.989 105.444 53.113C104.824 53.8983 104.287 54.632 103.832 55.314C103.398 55.9753 102.923 56.74 102.406 57.608C102.82 57.608 103.233 57.5977 103.646 57.577C104.08 57.5563 104.514 57.5253 104.948 57.484C105.052 57.5873 105.134 57.7217 105.196 57.887C105.258 58.0317 105.289 58.1867 105.289 58.352C104.277 58.724 103.047 58.9307 101.6 58.972C101.084 59.964 100.619 60.956 100.205 61.948C99.8127 62.9193 99.4717 63.8597 99.1823 64.769C98.9137 65.6783 98.6967 66.536 98.5313 67.342C98.3867 68.148 98.3143 68.8713 98.3143 69.512C98.3143 70.4213 98.6553 70.9277 99.3373 71.031C99.9573 70.9483 100.546 70.7933 101.104 70.566C101.662 70.3387 102.158 70.0493 102.592 69.698C102.716 69.884 102.789 70.039 102.809 70.163C102.685 70.349 102.468 70.566 102.158 70.814C101.869 71.062 101.549 71.2997 101.197 71.527C100.846 71.775 100.505 71.9817 100.174 72.147C99.8437 72.3123 99.5957 72.4053 99.4303 72.426C98.9137 72.4053 98.397 72.2917 97.8803 72.085C97.3637 71.8783 96.8883 71.62 96.4543 71.31C96.041 71 95.7 70.659 95.4313 70.287C95.1627 69.8943 95.0283 69.512 95.0283 69.14C95.0283 68.644 95.0903 68.024 95.2143 67.28C95.359 66.5153 95.5553 65.6887 95.8033 64.8C96.0513 63.9113 96.3407 62.9813 96.6713 62.01C97.002 61.0387 97.3637 60.0777 97.7563 59.127H95.9893ZM105.927 72.178C105.596 72.1367 105.245 71.992 104.873 71.744C104.521 71.5167 104.294 71.2583 104.191 70.969C104.191 70.721 104.222 70.4007 104.284 70.008C104.366 69.6153 104.459 69.2227 104.563 68.83C104.666 68.4167 104.769 68.0343 104.873 67.683C104.976 67.311 105.048 67.032 105.09 66.846C105.338 66.846 105.648 66.908 106.02 67.032C106.412 67.156 106.805 67.3317 107.198 67.559C107.611 67.7657 107.993 68.0137 108.345 68.303C108.717 68.5717 108.996 68.8507 109.182 69.14C108.996 69.5533 108.758 69.946 108.469 70.318C108.179 70.69 107.869 71.0103 107.539 71.279C107.229 71.5683 106.929 71.7853 106.64 71.93C106.35 72.0953 106.113 72.178 105.927 72.178Z" fill="white"/>
<path d="M80.8302 22.5684C80.8022 36.4088 70.9792 47.6087 58.89 47.5842C46.8007 47.5598 37.0232 36.3201 37.0512 22.4798C72.9251 -4.49666 46.8217 37.2175 58.9109 37.242C71.0002 37.2664 46.4552 -35.5772 80.8302 22.5684Z" fill="white"/>
</svg>
