<svg width="6" height="25" viewBox="0 0 6 25" fill="none" xmlns="http://www.w3.org/2000/svg">
<path d="M3 5.55556C4.65601 5.55361 5.99789 4.31112 6 2.77778C6 1.24368 4.65683 0 3 0C1.34317 0 0 1.24368 0 2.77778C0 4.31188 1.34317 5.55556 3 5.55556ZM3 1.38889C3.82819 1.3894 4.49945 2.01094 4.5 2.77778C4.5 3.54487 3.82846 4.16667 3 4.16667C2.17154 4.16667 1.5 3.54487 1.5 2.77778C1.5 2.01068 2.17154 1.38889 3 1.38889ZM3 9.72222C1.34317 9.72222 0 10.9659 0 12.5C0 14.0341 1.34317 15.2778 3 15.2778C4.65601 15.2758 5.99789 14.0333 6 12.5C6 10.9659 4.65683 9.72222 3 9.72222ZM3 13.8889C2.17154 13.8889 1.5 13.2671 1.5 12.5C1.5 11.7329 2.17154 11.1111 3 11.1111C3.82819 11.1116 4.49945 11.7332 4.5 12.5C4.5 13.2671 3.82846 13.8889 3 13.8889ZM3 19.4444C1.34317 19.4444 0 20.6881 0 22.2222C0 23.7563 1.34317 25 3 25C4.65601 24.998 5.99789 23.7556 6 22.2222C6 20.6881 4.65683 19.4444 3 19.4444ZM3 23.6111C2.17154 23.6111 1.5 22.9893 1.5 22.2222C1.5 21.4551 2.17154 20.8333 3 20.8333C3.82819 20.8338 4.49945 21.4554 4.5 22.2222C4.5 22.9893 3.82846 23.6111 3 23.6111Z" fill="white"/>
</svg>
