<svg width="34" height="35" viewBox="0 0 34 35" fill="none" xmlns="http://www.w3.org/2000/svg">
<path d="M25.8444 29.1676C25.6722 29.1678 25.5046 29.1106 25.3667 29.0045C25.2287 28.8985 25.1279 28.7493 25.0792 28.5792C25.0305 28.4092 25.0366 28.2276 25.0966 28.0614C25.1566 27.8953 25.2672 27.7537 25.412 27.6577C26.1628 27.1485 26.8013 26.4826 27.2862 25.7031C27.7447 24.9862 27.9019 24.4059 27.7548 23.9772C27.4557 23.1055 25.8455 22.476 24.4764 22.0249C23.872 21.8234 23.2251 21.7981 22.6075 21.9519C21.99 22.1057 21.4258 22.4324 20.9776 22.896L20.4591 23.4303C20.3663 23.5261 20.2518 23.5967 20.126 23.6359C19.7701 23.7453 17.8167 24.1084 14.1999 20.3848C14.1258 20.3086 14.067 20.2182 14.0268 20.1186C13.9866 20.019 13.9659 19.9123 13.9658 19.8045C13.9657 19.6967 13.9863 19.5899 14.0262 19.4903C14.0662 19.3906 14.1249 19.3001 14.1989 19.2238C14.2729 19.1475 14.3607 19.0869 14.4574 19.0455C14.5542 19.0042 14.6578 18.9829 14.7626 18.9828C14.8673 18.9827 14.971 19.0038 15.0678 19.045C15.1646 19.0861 15.2526 19.1465 15.3267 19.2227C17.6993 21.6656 19.088 22.009 19.5448 22.0489L19.8508 21.7339C20.506 21.0573 21.33 20.5802 22.232 20.3553C23.1339 20.1305 24.0787 20.1666 24.962 20.4597C26.7497 21.0492 28.7025 21.8127 29.2572 23.4281C29.5796 24.366 29.3634 25.4341 28.6197 26.6C28.013 27.5729 27.2147 28.4039 26.2763 29.0391C26.1473 29.1237 25.9974 29.1683 25.8444 29.1676ZM22.0157 30.2679C18.3681 30.2679 14.1803 28.0968 10.4435 24.2495C10.3674 24.1739 10.3067 24.0834 10.2649 23.9833C10.2231 23.8832 10.2011 23.7755 10.2002 23.6666C10.1993 23.5577 10.2195 23.4497 10.2595 23.3489C10.2996 23.2481 10.3588 23.1565 10.4336 23.0795C10.5084 23.0024 10.5974 22.9415 10.6953 22.9003C10.7933 22.859 10.8982 22.8383 11.004 22.8392C11.1098 22.8402 11.2144 22.8628 11.3116 22.9058C11.4088 22.9488 11.4967 23.0113 11.5703 23.0896C15.0967 26.7203 19.1512 28.7837 22.4024 28.6174C22.5073 28.6105 22.6124 28.6252 22.7116 28.6608C22.8108 28.6964 22.9021 28.7521 22.98 28.8246C23.0579 28.897 23.121 28.9849 23.1654 29.0829C23.2098 29.1809 23.2347 29.287 23.2386 29.3951C23.2493 29.6124 23.1757 29.8251 23.0341 29.9865C22.8924 30.148 22.6942 30.2448 22.4832 30.2559C22.3286 30.2635 22.1724 30.2679 22.0157 30.2679Z" fill="#0B0B0B"/>
<path d="M11.0065 24.4902C10.9019 24.4902 10.7983 24.469 10.7016 24.4277C10.605 24.3864 10.5172 24.3259 10.4434 24.2495C6.42291 20.1113 4.25435 15.3065 4.64269 11.3969C4.75303 10.2085 5.12746 9.06211 5.73701 8.04649C6.34657 7.03087 7.17492 6.1732 8.15798 5.53985C9.29326 4.77422 10.3308 4.55164 11.2392 4.8836C12.8085 5.45454 13.5507 7.46485 14.1229 9.30508C14.408 10.2143 14.4433 11.187 14.2249 12.1155C14.0064 13.0441 13.5427 13.8924 12.885 14.5666L12.5711 14.8903C12.6093 15.3131 12.919 16.7497 15.3245 19.2238C15.4697 19.3785 15.55 19.5857 15.5482 19.8008C15.5464 20.0158 15.4626 20.2216 15.3148 20.3737C15.1671 20.5258 14.9672 20.612 14.7583 20.6139C14.5493 20.6158 14.348 20.5331 14.1978 20.3837C10.581 16.6611 10.9327 14.6491 11.0395 14.2838C11.0772 14.1542 11.1459 14.0363 11.2392 13.9409L11.7583 13.4066C12.2082 12.9451 12.5255 12.3645 12.6748 11.7289C12.8242 11.0934 12.7998 10.4277 12.6045 9.80547C12.1663 8.39563 11.5548 6.73805 10.7085 6.43016C10.2915 6.27868 9.72729 6.44055 9.03135 6.91196C8.24456 7.40971 7.58136 8.08948 7.09443 8.89727C6.60751 9.70505 6.31028 10.6186 6.22635 11.5653C5.88582 14.9888 7.88279 19.2976 11.5681 23.0907C11.6796 23.2054 11.7555 23.3516 11.7863 23.5108C11.8171 23.67 11.8013 23.835 11.741 23.9849C11.6806 24.1348 11.5784 24.263 11.4473 24.3531C11.3162 24.4433 11.1621 24.4913 11.0044 24.4913L11.0065 24.4902Z" fill="#1F1C1C"/>
</svg>
