<svg width="50" height="43" viewBox="0 0 50 43" fill="none" xmlns="http://www.w3.org/2000/svg">
<path d="M47.9031 18.7897L3.19134 0.163269C2.31308 -0.209167 1.32305 0.0701548 0.668279 0.852447C0.0136186 1.63481 -0.178003 2.8083 0.173272 3.83274L4.83419 17.4501C5.07648 18.1578 5.6639 18.6221 6.3172 18.6221H18.6169C19.9423 18.6221 21.0121 19.8701 21.0121 21.4161C21.0121 22.962 19.9423 24.2101 18.6169 24.2101H6.3172C5.6639 24.2101 5.07648 24.6743 4.83419 25.3821L0.173272 38.9995C-0.177987 40.0239 0.0136186 41.1974 0.668295 41.9797C1.13143 42.5385 1.75414 42.8365 2.39291 42.8365C2.66434 42.8365 2.93589 42.7806 3.19134 42.6688L47.9031 24.0424C48.8612 23.6513 49.5 22.5896 49.5 21.4161C49.5 20.2426 48.8612 19.1809 47.9031 18.7897Z" fill="#FF0523"/>
</svg>
